<?xml version="1.0" standalone="no"?>
<!DOCTYPE svg PUBLIC "-//W3C//DTD SVG 20010904//EN"
 "http://www.w3.org/TR/2001/REC-SVG-20010904/DTD/svg10.dtd">
<svg version="1.0" xmlns="http://www.w3.org/2000/svg"
 width="1440.000000pt" height="742.000000pt" viewBox="0 0 1440.000000 742.000000"
 preserveAspectRatio="xMidYMid meet">

<g transform="translate(0.000000,742.000000) scale(0.100000,-0.100000)"
fill="#000000" stroke="none">
<path d="M3 7400 c-1 -15 4 -20 22 -20 13 0 27 -4 30 -10 4 -6 -7 -10 -24 -10
l-31 0 0 -859 c0 -810 1 -860 17 -864 17 -4 17 -5 1 -6 -17 -1 -18 -142 -18
-2816 l0 -2815 4859 0 4859 0 11 30 c5 17 7 38 4 47 -4 11 -2 14 5 9 9 -5 45
40 95 122 16 24 -13 12 -39 -18 -15 -16 -31 -27 -35 -24 -5 3 -10 0 -10 -5 -1
-6 -3 -15 -4 -21 -1 -5 -3 -17 -4 -25 -2 -24 -27 -17 -47 12 -9 15 -26 36 -36
47 -18 19 -18 19 -18 0 0 -16 -2 -16 -10 -4 -6 10 -6 16 0 18 19 7 10 28 -26
63 -19 18 -45 54 -56 79 -11 25 -25 48 -31 51 -5 4 -6 12 -2 19 5 8 4 11 -3 6
-12 -7 -26 29 -17 44 3 5 1 10 -4 10 -6 0 -11 -6 -11 -12 -1 -19 -29 34 -30
54 0 9 -3 18 -7 20 -5 2 -21 30 -36 63 -16 33 -39 81 -53 106 -30 58 -30 68
-2 43 l21 -19 -18 28 c-9 15 -20 27 -24 27 -7 0 -73 134 -119 240 -28 65 -57
158 -91 295 -16 66 -39 147 -49 180 -11 33 -18 62 -16 64 1 1 40 -4 84 -13 45
-10 85 -14 89 -11 16 17 -71 53 -182 75 -77 15 -106 44 -152 150 -21 47 -57
123 -80 170 -23 47 -48 103 -55 125 -7 22 -17 47 -23 55 -6 8 -7 12 -3 8 5 -4
14 -4 20 1 6 4 33 11 59 15 93 12 322 132 410 215 l28 26 -10 -27 c-6 -17 -7
-29 -1 -33 6 -4 10 -13 10 -22 0 -9 16 -38 35 -64 19 -27 35 -56 35 -64 0 -8
4 -15 9 -15 5 0 14 -14 20 -31 7 -19 15 -28 22 -23 7 4 9 3 6 -3 -8 -13 33
-117 58 -146 10 -12 30 -44 45 -72 44 -84 71 -129 90 -147 10 -10 21 -27 25
-38 4 -12 9 -19 13 -16 3 3 10 -3 16 -13 6 -11 28 -44 49 -75 20 -30 37 -65
37 -78 0 -19 -22 -115 -46 -195 -3 -13 -4 -23 -1 -23 2 0 20 52 38 115 l33
115 15 -37 c8 -21 18 -39 23 -41 4 -2 8 -8 8 -13 0 -6 9 -30 20 -55 50 -111
58 -132 70 -184 6 -30 18 -77 25 -105 41 -153 55 -384 25 -419 -10 -13 -10
-20 -2 -28 7 -7 12 -19 12 -28 -1 -8 -12 7 -26 33 -14 26 -22 53 -18 59 4 6 3
9 -2 6 -5 -3 -54 83 -109 192 -55 110 -101 197 -103 195 -2 -2 6 -21 17 -44
12 -22 21 -48 21 -58 0 -10 -27 -48 -60 -85 -33 -36 -60 -69 -60 -72 0 -9 57
50 97 99 18 22 34 37 37 35 10 -11 145 -289 161 -335 10 -27 22 -55 27 -61 4
-6 9 -27 10 -46 2 -20 6 -34 9 -32 4 2 9 -3 13 -11 3 -8 0 -17 -6 -21 -7 -5
-8 -2 -3 6 6 9 4 11 -4 6 -9 -6 -8 -12 4 -26 10 -11 12 -20 7 -24 -6 -3 -13 0
-15 6 -4 8 -6 9 -6 2 -1 -6 5 -17 13 -23 8 -7 12 -21 9 -31 -3 -11 0 -20 6
-20 6 0 11 5 11 11 0 17 60 68 105 90 26 12 62 19 102 19 93 0 101 -6 56 -46
-21 -18 -47 -33 -59 -34 -11 0 -35 -16 -54 -35 -20 -21 -44 -35 -58 -35 -13 0
-20 -4 -17 -10 4 -6 0 -32 -8 -58 -29 -91 -27 -142 10 -219 l15 -33 172 0 172
0 32 42 c18 23 32 50 32 60 0 10 5 18 10 18 6 0 10 -4 10 -10 0 -5 7 -10 15
-10 12 0 13 -4 3 -25 -6 -14 -17 -25 -23 -25 -12 0 -45 -31 -45 -43 0 -4 893
-7 1985 -7 l1985 0 0 3710 0 3710 -4640 0 -4640 0 6 -24 c3 -14 2 -31 -2 -38
-10 -16 -5 -80 7 -92 12 -13 12 -56 0 -56 -6 0 -13 5 -16 10 -4 6 -11 8 -16 5
-17 -11 -31 6 -18 21 7 9 14 27 15 42 4 33 -14 92 -27 92 -6 0 -7 9 -4 20 6
20 2 20 -2409 20 -2291 0 -2415 -1 -2419 -17 -4 -17 -5 -17 -6 0 -1 15 -13 17
-114 17 -106 0 -113 -1 -114 -20z m127 0 c25 -13 15 -40 -15 -40 -26 0 -42 29
-23 42 16 10 16 10 38 -2z m40 -105 c0 -8 -9 -15 -20 -15 -25 0 -26 17 -2 23
9 3 18 5 20 6 1 0 2 -6 2 -14z m4790 -55 c11 -11 23 -39 26 -63 5 -34 2 -46
-14 -60 -17 -16 -20 -16 -32 -2 -19 23 -23 145 -4 145 2 0 13 -9 24 -20z m220
-121 c0 -9 6 -19 14 -22 8 -3 16 -22 18 -44 2 -30 9 -41 31 -51 27 -13 28 -15
21 -70 -3 -32 -10 -61 -15 -66 -5 -6 -9 -20 -9 -32 0 -13 -4 -26 -10 -29 -20
-12 -9 -23 29 -30 40 -7 55 -23 45 -50 -3 -8 2 -22 11 -31 10 -11 15 -28 13
-45 -5 -29 12 -45 41 -40 29 5 43 -57 17 -78 -19 -16 -27 -71 -9 -71 7 0 15
-12 18 -27 3 -16 11 -45 17 -66 9 -28 8 -41 0 -49 -7 -7 -12 -27 -12 -46 0
-48 -24 -36 -28 14 -4 43 -14 59 -39 59 -26 0 -40 31 -25 55 6 11 12 28 12 38
0 9 7 28 16 40 8 12 10 22 5 22 -6 0 -11 -5 -11 -10 0 -7 -6 -7 -17 -1 -10 5
-26 12 -35 15 -20 6 -25 60 -8 71 15 9 12 43 -6 70 -9 14 -14 34 -11 45 7 26
-14 53 -35 45 -11 -5 -17 -22 -20 -58 -3 -45 0 -55 19 -70 18 -14 23 -29 23
-62 0 -52 -8 -75 -25 -75 -22 0 -45 48 -45 95 0 32 -6 52 -22 70 -22 25 -48
33 -48 15 0 -5 -4 -10 -10 -10 -5 0 -10 6 -10 14 0 22 -50 106 -71 117 -10 5
-19 17 -19 26 0 13 5 12 25 -7 24 -23 25 -23 45 -5 15 13 20 31 20 65 0 90 57
90 67 0 4 -33 1 -46 -17 -65 -13 -13 -17 -25 -11 -29 5 -4 13 -1 16 5 4 6 18
8 31 5 17 -5 24 -2 24 8 0 7 7 19 15 26 16 13 22 75 6 66 -12 -8 -35 50 -28
68 3 8 -1 20 -9 26 -11 10 -13 28 -8 80 5 45 3 69 -5 74 -6 4 -11 19 -11 34 1
26 1 26 15 8 8 -11 15 -27 15 -37z m-252 -17 c12 -8 32 -63 32 -88 0 -7 -8
-22 -19 -35 l-19 -23 -21 34 c-23 38 -27 71 -11 101 12 21 18 23 38 11z m172
-111 c0 -57 -11 -75 -38 -66 -14 4 -25 20 -32 43 -14 50 -13 64 6 91 l16 22
24 -22 c19 -17 24 -33 24 -68z m-1387 52 c12 -11 17 -31 17 -65 0 -59 -31 -98
-78 -98 -26 0 -31 5 -40 43 -12 45 -3 107 19 133 15 18 54 11 82 -13z m-3666
-325 c-3 -8 -6 -5 -6 6 -1 11 2 17 5 13 3 -3 4 -12 1 -19z m2435 -225 c34 -37
78 -109 78 -128 0 -9 -9 -15 -24 -15 -22 0 -59 -29 -40 -31 9 -1 43 -4 102 -7
25 -2 32 -6 32 -22 0 -21 1 -21 -113 -26 -20 0 -45 -8 -55 -17 -24 -21 -349
-40 -372 -21 -8 7 -31 11 -50 10 -39 -3 -50 6 -43 35 4 14 14 18 43 17 25 -1
43 5 57 19 17 17 40 23 109 28 88 8 89 8 135 54 44 44 71 62 112 75 17 5 17 7
1 31 -22 33 -4 32 28 -2z m2787 -45 c11 -23 23 -88 15 -88 -12 0 -55 82 -50
95 8 21 21 19 35 -7z m-989 -74 c0 -8 -4 -14 -10 -14 -5 0 -10 9 -10 21 0 11
5 17 10 14 6 -3 10 -13 10 -21z m-3230 -47 c0 -55 -23 -123 -60 -172 -20 -27
-39 -55 -41 -62 -2 -7 -10 -3 -20 10 -15 20 -15 26 4 75 14 37 23 50 31 42 17
-17 21 -12 50 50 26 56 27 62 13 84 -9 13 -13 26 -10 30 10 10 32 -28 33 -57z
m4118 9 c17 -33 8 -98 -16 -119 -27 -23 -69 -29 -85 -12 -36 35 -28 152 11
174 24 14 75 -10 90 -43z m-2453 -36 c8 -13 -15 -13 -35 0 -12 8 -11 10 7 10
12 0 25 -4 28 -10z m2769 -43 c7 -20 6 -31 -7 -45 -9 -10 -17 -27 -17 -38 0
-11 -4 -24 -9 -29 -5 -6 -11 -19 -13 -30 -4 -16 -9 -11 -26 25 -12 25 -22 56
-22 69 0 20 4 22 25 17 22 -6 25 -3 25 22 0 50 28 56 44 9z m-1974 -51 c0 -3
-4 -8 -10 -11 -5 -3 -10 -1 -10 4 0 6 5 11 10 11 6 0 10 -2 10 -4z m-1123 -42
l21 -6 -20 -34 c-26 -45 -38 -43 -38 6 0 42 2 43 37 34z m199 -11 c-2 -10 -8
-34 -11 -53 -7 -36 -48 -114 -65 -125 -6 -4 2 15 17 42 14 26 26 49 25 51 -2
1 0 12 3 25 6 24 13 57 14 70 1 4 6 7 12 7 6 0 8 -8 5 -17z m869 -23 c-6 -9
-9 -9 -16 1 -10 17 0 34 13 21 6 -6 7 -16 3 -22z m-1525 -43 c0 -16 -21 5 -36
36 l-16 32 26 -30 c14 -16 25 -34 26 -38z m3658 -58 c-1 -13 -7 -23 -13 -22
-13 3 -18 30 -11 50 10 24 29 1 24 -28z m-75 14 c35 13 48 -39 23 -88 l-14
-27 -27 52 c-14 29 -24 59 -20 68 5 13 8 14 15 3 4 -8 15 -11 23 -8z m-4696
-171 c-6 -23 -17 -42 -24 -42 -17 0 -56 -132 -41 -141 18 -11 -15 -149 -35
-149 -17 0 -50 -132 -35 -141 15 -10 -12 -139 -34 -161 -23 -23 -46 -137 -29
-147 17 -11 -7 -145 -31 -174 -11 -12 -18 -31 -15 -44 2 -13 0 -23 -4 -23 -5
0 -9 -16 -9 -35 0 -19 5 -35 10 -35 6 0 10 11 10 24 0 14 5 28 12 32 8 5 9 2
4 -12 -4 -10 -15 -63 -23 -116 -10 -61 -21 -98 -28 -98 -7 0 -15 -21 -19 -46
-9 -68 -7 -104 4 -104 7 0 9 -26 4 -77 -9 -107 -26 -121 -22 -19 1 47 -2 81
-8 83 -11 4 -9 34 12 223 47 410 207 1119 264 1170 9 8 23 30 30 48 17 44 21
36 7 -16z m3388 1 c60 -8 112 -17 115 -19 2 -3 -33 -2 -80 1 -144 11 -400 -33
-445 -76 -5 -5 -14 -9 -19 -9 -47 0 190 110 264 123 14 2 32 2 40 0 8 -3 64
-12 125 -20z m848 -19 c9 -9 -4 -35 -14 -28 -5 3 -9 12 -9 20 0 14 12 19 23 8z
m-843 -64 c0 -5 6 -10 13 -10 7 0 21 -15 32 -32 22 -39 222 -236 247 -244 10
-3 15 -11 11 -20 -4 -11 4 -9 31 7 29 17 35 18 30 5 -3 -9 -10 -13 -15 -10
-18 11 -9 -27 10 -43 11 -9 18 -20 15 -25 -3 -4 2 -5 11 -2 9 4 15 2 13 -4 -2
-5 16 -24 40 -41 23 -17 42 -36 42 -41 0 -6 4 -10 10 -10 5 0 27 -17 48 -38
39 -39 62 -44 62 -14 0 12 3 13 8 5 11 -17 145 70 154 100 6 21 6 21 7 1 1
-20 4 -20 41 -11 25 7 40 17 40 27 0 12 2 13 9 1 5 -8 18 -12 30 -8 12 3 23 2
26 -2 2 -4 -23 -13 -56 -19 -73 -13 -196 -71 -177 -83 10 -7 10 -9 -2 -10 -8
-1 -21 -1 -29 0 -8 2 -10 -3 -5 -11 4 -7 4 -10 -1 -6 -5 5 -15 -2 -23 -13 -13
-19 -12 -23 11 -47 24 -24 28 -25 44 -10 26 23 151 85 198 98 22 6 76 15 120
19 67 8 90 6 145 -10 135 -41 276 -133 385 -252 72 -79 88 -70 23 14 -150 194
-346 311 -548 327 -54 4 -67 8 -45 12 28 5 77 0 152 -16 l32 -6 4 73 3 74 2
-77 c2 -70 4 -77 25 -83 44 -13 113 -48 159 -81 30 -21 48 -29 51 -21 2 7 3 4
2 -5 -2 -11 10 -27 28 -40 18 -12 35 -27 39 -34 4 -6 24 -24 44 -39 30 -23 35
-25 31 -9 -3 11 -9 44 -12 74 -6 52 -5 56 19 69 21 11 28 12 41 1 12 -10 13
-16 4 -27 -9 -10 -9 -23 1 -54 10 -29 11 -45 3 -58 -11 -18 -11 -41 1 -83 11
-37 19 -35 35 8 7 19 15 33 17 31 3 -2 -2 -23 -11 -45 -13 -32 -14 -45 -5 -62
l11 -21 19 23 c21 25 26 18 9 -13 -12 -23 -6 -48 19 -75 21 -24 74 -129 103
-208 23 -59 23 -59 38 -35 9 13 26 35 39 49 13 14 6 -1 -15 -34 l-38 -59 -20
44 c-44 92 -96 191 -100 187 -2 -2 21 -53 50 -113 30 -61 55 -115 55 -122 0
-17 26 -14 215 28 146 33 192 39 174 26 -2 -2 -78 -20 -169 -41 -91 -21 -170
-42 -176 -47 -6 -5 -14 -5 -19 -1 -9 8 1 -26 21 -73 l13 -33 63 14 c35 8 83
18 108 23 25 6 74 17 110 25 75 18 83 19 76 8 -3 -5 -45 -17 -93 -27 -48 -10
-92 -21 -98 -25 -5 -5 -36 -11 -68 -15 -63 -8 -72 -15 -62 -46 7 -20 7 -20 28
-2 l22 18 -19 -23 c-19 -22 -19 -24 -1 -95 10 -40 19 -74 21 -76 2 -2 25 13
52 33 27 20 54 36 58 36 5 0 -3 -8 -17 -18 -74 -50 -85 -65 -85 -120 0 -29 3
-47 8 -39 6 9 8 9 8 -2 0 -8 6 -11 18 -7 12 4 11 1 -5 -13 -13 -11 -23 -25
-23 -33 0 -11 2 -11 9 0 6 10 10 2 15 -25 4 -21 12 -53 17 -70 l10 -33 61 31
c33 17 62 28 64 26 3 -2 -12 -12 -33 -22 -20 -10 -42 -22 -47 -27 -6 -5 -19
-14 -29 -21 -17 -12 -18 -21 -12 -81 7 -65 9 -68 31 -63 32 6 30 -1 -2 -13
-18 -7 -24 -15 -20 -26 3 -9 6 -24 6 -35 0 -11 7 -19 18 -20 15 -1 15 -2 -2
-6 -16 -4 -18 -12 -12 -56 3 -29 6 -124 6 -213 l0 -160 48 -17 47 -17 -40 6
c-22 3 -44 6 -50 7 -5 1 -11 -20 -13 -48 -3 -38 1 -52 15 -63 17 -13 17 -13
-2 -10 -18 3 -20 -3 -23 -64 -3 -64 -2 -68 25 -83 25 -15 16 -14 -21 1 -10 4
-16 -14 -26 -76 -12 -79 -12 -82 9 -97 12 -8 34 -26 49 -40 16 -15 7 -11 -24
10 l-50 36 -11 -52 c-9 -44 -8 -55 6 -72 15 -18 15 -19 -1 -6 -20 15 -19 17
-38 -63 l-11 -49 43 -46 43 -46 -44 40 c-43 39 -48 32 -8 -12 11 -13 16 -23
10 -23 -5 0 -18 9 -28 20 -10 11 -21 20 -24 20 -4 0 -14 -24 -24 -52 -10 -29
-25 -70 -34 -91 -12 -29 -14 -40 -5 -49 17 -17 15 -33 -3 -18 -12 10 -16 9
-21 -6 -11 -32 -83 -176 -113 -228 l-29 -49 23 -51 c12 -28 25 -60 29 -70 12
-36 17 -8 19 114 2 115 3 123 26 141 13 11 25 18 27 17 6 -7 -17 -232 -24
-237 -4 -3 -8 -22 -8 -41 1 -59 -25 -43 -65 39 l-36 73 -22 -28 c-12 -15 -20
-32 -18 -38 2 -6 7 -22 11 -36 5 -22 4 -22 -7 3 l-14 29 -27 -33 c-18 -21 -26
-40 -23 -53 3 -12 8 -37 11 -56 5 -29 3 -26 -12 14 l-18 48 -37 -42 c-23 -25
-36 -48 -33 -58 19 -66 36 -146 33 -155 -2 -7 -14 30 -26 80 l-23 92 -24 -17
c-22 -15 -24 -23 -20 -67 l5 -50 -11 40 c-6 22 -12 41 -13 43 -2 2 -16 -4 -32
-14 -15 -10 -29 -19 -31 -20 -2 -1 -5 -14 -8 -30 -7 -36 -14 -44 -14 -16 0 23
-8 25 -50 13 -19 -5 -27 -16 -31 -41 l-6 -35 -2 33 c-1 30 -3 32 -22 22 -16
-9 -19 -18 -16 -38 l6 -27 -12 28 c-8 21 -16 27 -32 23 -11 -3 -39 -8 -62 -12
-34 -5 -47 -14 -68 -45 -26 -41 -43 -47 -63 -27 -9 9 -12 4 -13 -22 -1 -19 -5
-46 -10 -60 -6 -18 -7 -12 -4 24 3 27 5 73 5 102 0 40 4 54 14 54 8 0 16 7 20
15 3 10 -1 15 -12 15 -12 0 -10 4 7 13 39 19 35 34 -12 46 -51 12 -115 40
-169 72 l-37 22 -20 -24 c-11 -13 -20 -31 -21 -40 0 -18 89 -69 173 -99 28
-10 45 -19 36 -19 -24 -1 -119 34 -169 63 l-45 26 -12 -53 -12 -52 6 58 c3 31
3 57 -1 57 -12 0 -76 -74 -76 -88 0 -7 -4 -11 -9 -8 -5 3 -19 -4 -33 -17 -13
-12 -50 -40 -81 -61 -38 -27 -56 -45 -52 -54 4 -12 3 -13 -10 -2 -12 10 -19 9
-39 -3 -82 -54 -282 -67 -421 -28 -121 35 -130 36 -154 12 -12 -12 -21 -32
-21 -45 0 -32 -27 -38 -61 -13 -31 22 -65 19 -62 -7 0 -11 -4 -15 -13 -12 -8
3 -14 -1 -14 -10 0 -8 4 -12 10 -9 6 3 7 -1 4 -9 -3 -9 -9 -14 -13 -11 -4 2
-8 -12 -9 -33 -1 -36 -1 -36 11 -12 14 29 44 36 70 16 17 -13 17 -16 1 -55
-12 -31 -22 -41 -39 -41 -12 0 -28 7 -35 15 -11 14 -14 13 -25 -1 -10 -14 -17
-15 -47 -5 -19 6 -49 22 -67 36 -18 13 -39 21 -47 18 -17 -6 -19 13 -1 21 6 3
2 3 -11 0 -15 -4 -22 -1 -20 7 2 7 -6 17 -18 23 -11 6 -19 17 -16 24 2 7 0 18
-6 25 -5 7 -13 30 -17 52 -5 23 -10 33 -12 23 -5 -20 -18 -23 -28 -8 -4 6 -16
8 -28 5 -17 -5 -19 -4 -7 4 9 6 10 11 3 11 -17 0 -74 60 -68 71 4 5 0 7 -7 4
-14 -6 -21 6 -80 147 -40 96 -67 135 -118 165 -39 22 -68 72 -111 185 -91 238
-138 398 -179 609 -42 217 -37 303 19 315 49 11 113 48 145 86 29 33 33 35 43
20 6 -10 14 -38 18 -62 15 -90 122 -391 190 -535 156 -333 198 -407 320 -569
88 -116 203 -236 269 -280 33 -22 49 -26 110 -25 61 2 66 3 31 9 -22 4 -34 8
-27 9 6 0 12 4 12 9 0 8 -57 42 -72 42 -6 0 -26 18 -45 40 -19 22 -39 40 -44
40 -14 0 -122 112 -138 143 -8 16 -30 42 -48 60 -18 18 -33 39 -33 47 0 8 -18
39 -40 68 -22 29 -40 57 -40 63 0 8 -16 40 -65 129 -7 14 -19 45 -26 69 -7 24
-18 49 -25 56 -7 6 -19 39 -28 73 -9 35 -25 83 -37 108 -11 25 -18 48 -15 51
5 5 -18 93 -34 128 -5 11 -12 47 -15 80 -4 33 -13 78 -20 100 -7 22 -13 62
-14 89 -1 26 -4 52 -7 57 -20 34 -36 598 -20 709 4 25 9 77 11 115 5 91 23
207 42 272 8 29 18 77 22 107 4 30 12 61 18 68 6 7 16 38 23 68 7 30 23 80 36
110 12 30 26 69 30 85 4 17 20 53 36 81 15 28 28 60 28 70 0 11 8 29 18 40 25
27 62 89 62 104 0 6 18 32 40 57 22 25 40 52 40 59 0 7 14 22 31 34 16 12 41
40 55 61 13 21 31 39 38 39 8 0 30 18 49 40 19 22 40 40 48 40 17 1 51 25 44
32 -6 6 36 23 78 32 15 4 27 13 27 22 0 16 -37 33 -60 28 -8 -3 4 5 27 16 23
11 71 27 105 35 59 13 59 14 13 9 -73 -9 -169 -47 -241 -96 -51 -34 -60 -44
-46 -50 13 -5 11 -7 -9 -7 -27 -1 -94 -53 -82 -64 3 -4 -1 -7 -10 -7 -8 0 -45
-37 -82 -82 -57 -72 -94 -129 -212 -326 -13 -20 -21 -43 -18 -50 3 -7 1 -11
-4 -8 -7 5 -16 -12 -95 -186 -33 -73 -97 -281 -130 -425 -103 -445 -108 -487
-89 -688 16 -166 17 -266 3 -295 -1 -3 -11 42 -21 100 -12 66 -20 169 -23 275
-4 176 -13 226 -49 257 -19 17 -18 18 12 94 17 43 36 109 42 148 5 39 12 85
15 101 2 17 9 143 15 280 6 138 12 263 13 278 2 16 -4 48 -11 71 -13 38 -13
48 1 80 27 65 86 42 86 -33 0 -38 -29 -57 -61 -41 -19 11 -20 10 -9 -9 6 -12
22 -28 35 -37 68 -44 130 49 94 143 -24 64 -71 88 -122 62 -13 -6 -7 3 14 23
33 30 119 157 119 176 0 8 90 164 99 172 3 3 25 30 48 60 86 114 215 230 313
281 22 12 43 25 46 30 3 5 35 23 72 41 37 17 69 35 72 39 24 35 260 79 260 49z
m7780 -40 c30 -7 64 -18 75 -25 11 -7 45 -18 75 -24 59 -13 213 -82 225 -101
15 -24 -12 -28 -90 -15 -44 8 -81 15 -83 15 -2 0 -1 -4 2 -9 3 -4 29 -11 58
-15 77 -10 119 -25 152 -55 27 -25 28 -28 23 -105 -4 -58 -11 -86 -26 -107
-33 -45 -28 -84 16 -113 l37 -26 -34 -6 c-33 -7 -33 -7 -9 -17 16 -6 19 -11
10 -14 -8 -3 -9 -8 -3 -12 7 -4 5 -20 -4 -46 -7 -22 -14 -49 -14 -60 0 -11 -9
-26 -20 -33 -24 -15 -25 -25 -4 -46 8 -9 13 -16 9 -16 -3 0 15 -26 41 -57 46
-57 78 -116 72 -134 -2 -5 -25 20 -51 56 -94 127 -201 188 -329 189 -60 1 -74
4 -66 14 8 9 5 12 -11 12 -29 0 -37 26 -16 50 10 11 16 22 14 24 -2 2 -69 -12
-149 -30 -80 -19 -155 -32 -167 -30 -13 2 -23 -2 -23 -8 0 -6 -24 -41 -53 -77
-62 -76 -96 -145 -131 -260 -59 -201 -70 -330 -34 -409 23 -49 31 -90 18 -90
-6 0 -8 5 -5 10 12 19 -2 10 -31 -22 -16 -18 -21 -26 -11 -19 20 16 23 -1 3
-19 -8 -6 -12 -19 -9 -27 5 -12 3 -14 -7 -8 -8 5 -11 3 -8 -6 5 -16 10 -10
-114 -140 -88 -92 -138 -166 -138 -202 0 -7 -24 -20 -52 -29 -29 -9 -60 -19
-70 -23 -11 -4 -18 0 -23 14 -5 15 -13 20 -29 17 -21 -4 -22 -2 -12 20 6 13
17 22 24 19 7 -3 10 0 7 6 -4 5 -1 17 7 26 12 15 11 15 -9 4 -41 -22 -91 -126
-117 -243 -5 -22 -14 -28 -56 -37 -64 -14 -195 -14 -221 -1 -10 6 -26 24 -35
41 -13 27 -14 40 -3 100 l12 70 -32 46 c-37 52 -37 95 0 129 l20 18 -21 8
c-37 14 -46 52 -28 119 9 33 14 67 11 77 -3 9 -33 40 -67 68 -86 71 -89 119
-12 202 92 100 208 253 232 307 24 51 25 64 19 129 -5 59 -2 94 20 191 38 170
59 232 102 303 105 172 292 316 525 404 67 26 104 33 198 39 152 9 352 4 420
-11z m-6803 -16 c-3 -3 -12 -4 -19 -1 -8 3 -5 6 6 6 11 1 17 -2 13 -5z m-4077
-64 c15 -35 9 -436 -8 -580 -6 -47 -16 -146 -22 -220 -6 -74 -18 -160 -25
-190 -8 -30 -19 -75 -25 -100 -10 -41 -21 -79 -65 -229 -9 -30 -19 -85 -22
-124 -4 -46 -12 -74 -23 -86 -10 -9 -21 -27 -25 -41 -4 -14 -15 -43 -25 -65
-10 -22 -21 -52 -24 -67 -4 -17 -18 -34 -36 -43 -17 -9 -31 -13 -31 -10 -4 14
-7 22 -18 50 -7 17 -13 37 -13 45 -6 425 50 948 138 1280 14 52 28 102 31 110
3 8 18 49 32 90 28 79 79 169 96 170 6 0 16 9 23 20 17 28 27 25 42 -10z
m4300 -1 c0 -5 -4 -9 -10 -9 -5 0 -10 7 -10 16 0 8 5 12 10 9 6 -3 10 -10 10
-16z m75 -39 c3 -5 1 -10 -4 -10 -6 0 -11 5 -11 11 0 5 -4 7 -10 4 -5 -3 -10
-1 -10 4 0 6 -5 10 -11 9 -6 -2 -14 3 -16 10 -4 11 2 10 25 -2 17 -9 34 -20
37 -26z m-816 -1 c20 -32 16 -69 -7 -77 -14 -4 -32 39 -32 79 0 38 15 37 39
-2z m64 5 c9 -17 9 -17 -6 -6 -14 12 -15 10 -10 -25 7 -49 -15 -33 -26 19 -7
30 -6 34 12 33 10 -1 24 -10 30 -21z m-3914 -339 c-72 -326 -159 -866 -159
-986 0 -21 -5 -41 -11 -45 -27 -16 39 519 97 801 44 210 110 463 119 453 2 -2
-19 -102 -46 -223z m4661 162 c0 -6 -9 0 -20 13 -11 13 -20 25 -20 28 0 3 9
-3 20 -13 11 -10 20 -23 20 -28z m-423 -9 c-3 -7 -5 -2 -5 12 0 14 2 19 5 13
2 -7 2 -19 0 -25z m-90 -40 c-3 -7 -5 -2 -5 12 0 14 2 19 5 13 2 -7 2 -19 0
-25z m-180 -30 c-3 -8 -6 -5 -6 6 -1 11 2 17 5 13 3 -3 4 -12 1 -19z m720 -10
c-3 -8 -6 -5 -6 6 -1 11 2 17 5 13 3 -3 4 -12 1 -19z m110 -20 c-3 -7 -5 -2
-5 12 0 14 2 19 5 13 2 -7 2 -19 0 -25z m272 -53 c0 -31 -2 -36 -9 -20 -5 11
-9 38 -9 60 0 31 2 36 9 20 5 -11 9 -38 9 -60z m-1879 50 c-7 -9 -28 -15 -49
-14 l-36 1 35 13 c50 19 66 19 50 0z m787 -7 c-3 -8 -6 -5 -6 6 -1 11 2 17 5
13 3 -3 4 -12 1 -19z m401 -15 c-10 -2 -28 -2 -40 0 -13 2 -5 4 17 4 22 1 32
-1 23 -4z m409 -25 c-3 -7 -5 -2 -5 12 0 14 2 19 5 13 2 -7 2 -19 0 -25z
m-800 0 c-3 -8 -6 -5 -6 6 -1 11 2 17 5 13 3 -3 4 -12 1 -19z m-859 -5 c-10
-2 -26 -2 -35 0 -10 3 -2 5 17 5 19 0 27 -2 18 -5z m1939 -50 c5 3 9 -2 9 -11
1 -9 4 -25 9 -34 4 -11 3 -18 -4 -18 -6 0 -11 7 -11 16 0 8 -7 22 -15 30 -8 9
-15 21 -15 27 0 8 3 7 9 -2 5 -7 13 -11 18 -8z m-2617 -27 c0 -2 -8 -10 -17
-17 -16 -13 -17 -12 -4 4 13 16 21 21 21 13z m-2623 -48 c-3 -7 -5 -2 -5 12 0
14 2 19 5 13 2 -7 2 -19 0 -25z m2173 -8 c0 -11 -4 -20 -9 -20 -11 0 -22 26
-14 34 12 12 23 5 23 -14z m420 17 c0 -2 -10 -12 -22 -23 l-23 -19 19 23 c18
21 26 27 26 19z m2680 -11 c0 -3 -4 -8 -10 -11 -5 -3 -10 -1 -10 4 0 6 5 11
10 11 6 0 10 -2 10 -4z m6100 -180 c0 -7 -25 -24 -56 -36 -53 -22 -194 -122
-194 -139 0 -4 -7 -16 -16 -27 -8 -10 -12 -13 -8 -5 5 9 3 12 -5 7 -6 -4 -9
-12 -6 -17 4 -5 -3 -26 -15 -47 -28 -50 -40 -181 -23 -242 l13 -44 -20 22
c-11 12 -26 19 -33 17 -16 -7 -22 102 -6 121 6 7 8 17 6 21 -3 5 2 24 11 43
17 40 19 45 21 64 0 8 7 21 14 28 6 8 17 23 24 33 6 11 16 19 23 17 6 -1 9 2
5 8 -14 22 106 125 195 167 54 25 70 27 70 9z m-271 1 c-2 -2 -17 -11 -34 -21
l-30 -17 24 20 c13 12 28 21 34 21 6 0 8 -1 6 -3z m-11149 -103 c0 -8 -5 -12
-10 -9 -6 4 -8 11 -5 16 9 14 15 11 15 -7z m2674 -18 c17 -36 22 -106 7 -106
-4 0 -11 23 -14 52 -4 28 -11 56 -17 62 -12 12 -13 26 -1 26 5 0 16 -15 25
-34z m8781 14 c-3 -5 -15 -10 -26 -10 -10 0 -19 5 -19 10 0 6 12 10 26 10 14
0 23 -4 19 -10z m-179 -83 c-51 -51 -82 -112 -89 -175 -3 -34 -1 -45 13 -52
10 -5 23 -30 29 -56 7 -26 19 -60 27 -76 8 -15 13 -28 10 -28 -6 0 -38 52 -40
66 -1 7 -5 17 -9 20 -4 4 -7 18 -7 30 0 14 -9 28 -21 35 -19 10 -21 17 -16 68
6 70 34 124 94 178 61 55 67 48 9 -10z m318 27 c68 -24 140 -97 160 -164 21
-71 20 -108 -5 -174 -49 -133 -214 -206 -344 -152 -89 38 -140 104 -163 212
-39 184 162 343 352 278z m131 -15 c12 -19 -5 -23 -22 -6 -16 16 -16 17 -1 17
9 0 20 -5 23 -11z m-9479 -110 c-68 -369 -96 -654 -103 -1057 -4 -239 -9 -348
-16 -337 -24 44 -14 696 13 880 45 296 79 487 102 568 18 62 20 35 4 -54z
m9519 52 c-10 -16 -25 -3 -25 22 0 20 1 20 16 5 9 -9 13 -21 9 -27z m38 -57
c8 -22 18 -60 22 -82 5 -34 3 -42 -10 -42 -10 0 -15 10 -15 30 0 16 -9 53 -20
81 -10 29 -17 56 -14 61 8 13 18 0 37 -48z m-876 -56 c-3 -8 -6 -5 -6 6 -1 11
2 17 5 13 3 -3 4 -12 1 -19z m-20 -125 c-2 -53 -6 -69 -19 -71 -13 -3 -14 3
-6 40 5 24 12 55 15 71 9 46 13 30 10 -40z m-5431 25 c-10 -13 -13 -32 -9 -47
8 -35 -1 -24 -15 17 -6 18 -7 30 -3 27 5 -2 14 2 21 10 19 23 23 18 6 -7z
m6343 -18 c-6 -16 -15 -30 -21 -30 -6 0 -7 7 -4 16 3 9 6 22 6 30 0 8 7 14 14
14 12 0 13 -6 5 -30z m-619 -44 c0 -7 -6 -19 -14 -25 -11 -9 -15 -6 -18 14 -4
19 -1 25 13 25 11 0 19 -6 19 -14z m-135 -26 c3 -5 1 -10 -4 -10 -6 0 -11 5
-11 10 0 6 2 10 4 10 3 0 8 -4 11 -10z m98 -40 c-6 -7 -23 23 -23 40 0 8 6 4
13 -10 8 -14 12 -27 10 -30z m-78 0 c-14 -16 -20 -17 -26 -8 -7 12 2 18 40 27
2 1 -4 -8 -14 -19z m-8778 -62 c-3 -8 -6 -5 -6 6 -1 11 2 17 5 13 3 -3 4 -12
1 -19z m8623 12 c0 -5 -4 -10 -10 -10 -5 0 -10 5 -10 10 0 6 5 10 10 10 6 0
10 -4 10 -10z m46 -51 c-17 -41 -66 -91 -66 -67 0 9 7 21 15 28 9 7 13 15 10
18 -9 9 17 32 28 25 6 -4 8 0 4 11 -4 10 -3 15 3 11 6 -3 10 2 11 12 0 10 3
13 5 7 2 -6 -2 -26 -10 -45z m335 14 c13 -15 12 -15 -8 -4 -24 12 -29 21 -14
21 5 0 15 -7 22 -17z m337 -28 c-13 -12 -68 -29 -68 -21 0 2 14 13 32 24 33
21 60 19 36 -3z m-9351 -7 c-3 -8 -6 -5 -6 6 -1 11 2 17 5 13 3 -3 4 -12 1
-19z m-2405 -83 c-3 -52 -1 -75 7 -75 12 0 14 -99 2 -140 -5 -15 -10 33 -15
122 -7 127 -5 168 8 168 2 0 1 -34 -2 -75z m11264 22 c9 -16 13 -40 10 -53 -8
-31 -56 -74 -81 -73 -20 1 -20 1 0 6 40 10 36 21 -6 17 -41 -3 -42 -3 -11 5
42 11 50 19 57 56 12 59 -52 95 -104 59 -18 -13 -22 -24 -19 -54 2 -21 0 -36
-4 -34 -5 3 -8 20 -8 39 0 62 85 100 125 55 25 -27 33 -16 9 12 -17 20 -17 21
-1 9 10 -8 25 -28 33 -44z m-8869 -9 c-3 -7 -5 -2 -5 12 0 14 2 19 5 13 2 -7
2 -19 0 -25z m8793 19 c0 -2 -10 -12 -22 -23 l-23 -19 19 23 c18 21 26 27 26
19z m22 -63 c-14 -29 -35 -28 -37 3 -1 16 3 20 18 17 14 -2 17 1 12 14 -5 13
-4 14 6 5 10 -10 10 -18 1 -39z m-8825 -41 c-3 -10 -5 -2 -5 17 0 19 2 27 5
18 2 -10 2 -26 0 -35z m8613 27 c0 -5 -5 -10 -11 -10 -5 0 -7 5 -4 10 3 6 8
10 11 10 2 0 4 -4 4 -10z m70 -35 c4 3 10 -2 13 -10 8 -19 -66 -118 -135 -181
-51 -46 -128 -100 -128 -89 0 9 134 171 171 207 23 22 33 38 26 41 -8 3 -3 12
13 25 14 11 27 16 28 11 2 -5 7 -7 12 -4z m-8693 -102 c-2 -16 -4 -5 -4 22 0
28 2 40 4 28 2 -13 2 -35 0 -50z m410 0 c-3 -10 -5 -4 -5 12 0 17 2 24 5 18 2
-7 2 -21 0 -30z m8770 -15 c-3 -7 -5 -2 -5 12 0 14 2 19 5 13 2 -7 2 -19 0
-25z m-5787 -18 c-19 -11 -39 -19 -45 -19 -5 0 6 8 25 19 19 11 40 19 45 19 6
0 -6 -8 -25 -19z m-2993 -37 c-3 -10 -5 -4 -5 12 0 17 2 24 5 18 2 -7 2 -21 0
-30z m8801 -23 c0 -9 -3 -7 -8 5 -5 11 -8 29 -8 40 0 16 2 15 8 -5 4 -14 8
-32 8 -40z m-9211 -32 c-2 -13 -4 -5 -4 17 -1 22 1 32 4 23 2 -10 2 -28 0 -40z
m400 -40 c-2 -13 -4 -3 -4 22 0 25 2 35 4 23 2 -13 2 -33 0 -45z m8309 23
c-52 -57 -278 -182 -326 -180 -18 1 -20 3 -7 6 10 3 16 10 14 16 -2 7 28 26
67 43 110 48 147 66 206 101 64 38 69 40 46 14z m614 -371 c18 -58 54 -161 80
-230 26 -69 51 -134 55 -145 5 -13 5 -17 -2 -10 -43 43 -245 677 -242 760 0
11 17 -45 38 -125 21 -80 53 -192 71 -250z m-10091 345 c8 -8 16 -36 19 -64 4
-43 1 -53 -21 -75 -35 -34 -74 -34 -87 0 -13 34 -13 120 1 145 8 16 17 19 42
14 18 -4 38 -13 46 -20z m5566 -27 c-5 -20 0 -45 34 -175 5 -19 5 -31 0 -27
-5 3 -9 -2 -9 -10 0 -11 -9 -16 -30 -16 -17 0 -39 -9 -52 -22 l-21 -21 23 -9
c16 -6 36 -4 62 7 34 13 54 6 28 -10 -13 -8 -7 -65 9 -91 12 -19 12 -19 6 1
-11 32 -11 48 2 52 19 7 53 -39 69 -94 15 -51 15 -54 -7 -93 -13 -22 -26 -40
-29 -40 -4 0 -17 -9 -30 -20 -13 -11 -29 -20 -36 -20 -8 0 -11 -6 -8 -15 5
-11 11 -12 24 -5 31 17 61 12 67 -11 5 -17 11 -20 33 -15 39 7 66 -14 52 -41
-13 -24 -7 -33 23 -33 11 0 26 -5 33 -12 17 -17 14 3 -4 27 -13 17 -16 18 -24
5 -8 -12 -10 -10 -10 8 0 31 50 92 75 92 37 0 66 12 61 25 -3 8 4 13 17 12 12
0 58 2 102 6 44 3 70 3 57 1 -20 -5 -21 -7 -9 -17 8 -7 17 -37 20 -68 l5 -56
-58 -6 c-37 -3 -70 -13 -89 -26 -16 -12 -33 -21 -38 -21 -29 0 -1 -154 32
-176 26 -17 24 -43 -6 -70 -18 -16 -18 -17 3 -34 19 -15 20 -20 9 -47 -10 -24
-17 -29 -42 -28 -18 1 -29 -3 -29 -12 0 -7 -4 -13 -8 -13 -14 0 -43 36 -35 43
3 4 -4 7 -16 7 -14 0 -25 9 -31 24 -17 47 -43 172 -42 211 0 33 -1 35 -7 15
-7 -23 -8 -24 -14 -5 -8 23 -85 105 -98 105 -5 0 -9 11 -9 25 0 29 -3 30 -30
13 -18 -11 -23 -9 -45 17 -14 17 -33 46 -43 65 -10 19 -33 59 -50 87 l-31 53
33 14 c41 17 49 28 33 50 -11 15 -14 15 -35 1 -12 -9 -22 -23 -22 -31 0 -27
-33 -10 -42 21 -4 17 -9 73 -10 125 -3 83 -1 95 15 98 10 2 17 -3 17 -13 0
-19 42 -95 52 -95 16 0 19 22 5 33 -13 10 -14 20 -7 52 50 224 50 225 85 225
21 0 25 -4 20 -22z m-7155 -38 c0 -5 -4 -10 -9 -10 -6 0 -13 5 -16 10 -3 6 1
10 9 10 9 0 16 -4 16 -10z m2517 -6 c-3 -3 -12 -4 -19 -1 -8 3 -5 6 6 6 11 1
17 -2 13 -5z m5694 -4 c37 -20 55 -83 64 -223 2 -27 6 -55 9 -62 11 -30 -134
-62 -170 -37 -10 7 -34 86 -34 113 0 10 3 10 12 1 15 -15 99 -16 133 0 19 8
25 19 25 42 0 75 -40 146 -81 146 -58 0 -88 -43 -91 -129 l-1 -46 -4 40 c-12
112 62 195 138 155z m-5464 -52 c-2 -13 -4 -5 -4 17 -1 22 1 32 4 23 2 -10 2
-28 0 -40z m8513 33 c0 -5 6 -11 13 -14 6 -2 4 -3 -5 -2 -9 2 -19 -2 -22 -9
-2 -6 -5 -1 -5 12 -1 12 4 22 9 22 6 0 10 -4 10 -9z m-8674 -88 c5 -35 3 -48
-10 -61 -15 -15 -16 -12 -16 38 0 30 -3 66 -6 80 -5 24 -5 24 10 6 8 -10 18
-39 22 -63z m-239 -30 c-2 -21 -4 -6 -4 32 0 39 2 55 4 38 2 -18 2 -50 0 -70z
m5820 89 c16 -10 5 -52 -13 -52 -18 0 -28 24 -20 45 6 17 15 19 33 7z m-7467
-12 c0 -13 -170 -13 -190 0 -10 7 18 10 88 10 61 0 102 -4 102 -10z m1818 -22
c9 -19 9 -34 2 -52 -13 -34 -35 -42 -67 -25 -22 12 -24 18 -20 53 3 21 11 43
19 47 23 15 52 5 66 -23z m-1981 -5 c-20 -2 -52 -2 -70 0 -17 2 0 4 38 4 39 0
53 -2 32 -4z m1523 -13 c0 -11 -4 -20 -10 -20 -5 0 -10 9 -10 20 0 11 5 20 10
20 6 0 10 -9 10 -20z m9228 8 c-4 -12 -38 -21 -38 -9 0 12 12 21 28 21 7 0 12
-5 10 -12z m-778 -39 c0 -5 -10 -9 -21 -9 -18 0 -19 2 -9 15 12 15 30 12 30
-6z m796 -58 c9 -39 21 -68 25 -65 4 2 14 -3 22 -11 12 -11 17 -12 20 -2 3 6
6 -8 7 -33 1 -25 3 -53 5 -63 2 -9 -3 -24 -11 -31 -18 -18 -18 -28 2 -101 8
-33 17 -69 18 -80 1 -11 10 -37 19 -57 23 -51 5 -85 -48 -92 -5 0 -11 3 -12 8
-1 5 -7 13 -15 17 -11 7 -10 11 2 18 8 5 17 8 21 6 9 -6 8 78 -1 90 -8 11 -29
108 -32 153 -1 6 -5 12 -10 12 -5 0 -6 -11 -4 -25 3 -16 -1 -29 -12 -36 -15
-10 -15 -10 1 -5 10 3 15 2 12 -3 -3 -5 -1 -12 5 -16 15 -9 8 -55 -8 -55 -12
0 -12 3 -1 16 10 13 10 17 -2 25 -8 5 -9 9 -4 9 6 0 2 5 -8 11 -13 8 -22 7
-33 -2 -12 -9 -20 -9 -40 1 -21 12 -22 15 -9 23 13 7 13 11 -7 27 -12 10 -29
15 -36 12 -12 -4 -11 0 1 19 17 26 17 25 17 65 0 14 4 23 9 19 6 -3 14 3 20
12 6 10 11 12 11 6 0 -8 8 -5 20 7 12 12 18 25 15 31 -4 5 -1 8 7 7 14 -3 14
3 2 100 -10 76 10 65 32 -17z m-10571 14 l0 -30 -153 -3 -153 -3 3 28 c3 28 3
28 98 34 52 3 120 5 150 5 54 -1 55 -1 55 -31z m-642 5 c7 -27 -3 -60 -18 -60
-18 0 -28 49 -14 66 16 19 26 18 32 -6z m7033 -47 c-10 -10 -19 5 -10 18 6 11
8 11 12 0 2 -7 1 -15 -2 -18z m662 -31 c5 -32 -58 -91 -125 -119 -51 -21 -52
-21 -69 -2 -14 15 -20 17 -32 6 -13 -10 -15 -9 -9 11 4 18 2 22 -9 18 -20 -8
-29 38 -14 74 11 27 16 29 74 33 33 2 88 3 121 3 55 -1 60 -3 63 -24z m-578
-2 c0 -5 -5 -10 -11 -10 -5 0 -7 5 -4 10 3 6 8 10 11 10 2 0 4 -4 4 -10z
m-6500 -20 c0 -5 -8 -10 -17 -10 -15 0 -16 2 -3 10 19 12 20 12 20 0z m1637
-97 c-2 -21 -4 -6 -4 32 0 39 2 55 4 38 2 -18 2 -50 0 -70z m5156 86 c-14 -14
19 -86 49 -107 18 -13 16 -16 -27 -43 -25 -16 -54 -43 -63 -59 -9 -16 -23 -30
-30 -30 -6 0 -22 -11 -34 -25 -12 -14 -28 -25 -35 -25 -7 0 -13 -6 -13 -12 -1
-9 -5 -8 -13 3 -7 8 -24 23 -38 33 -39 25 -32 62 21 125 46 53 164 151 183
151 7 0 7 -4 0 -11z m-6753 -43 c0 -11 -24 -14 -122 -14 -81 1 -107 3 -78 7
37 6 41 8 20 13 -14 3 21 6 78 7 82 1 102 -2 102 -13z m10657 -28 c-3 -8 -6
-5 -6 6 -1 11 2 17 5 13 3 -3 4 -12 1 -19z m-3241 -33 c6 -11 21 -21 33 -23
17 -3 22 3 27 27 6 28 10 31 44 31 l38 0 11 -67 c26 -167 30 -218 18 -263 -12
-44 -13 -45 -49 -42 -39 3 -41 7 -50 66 -8 52 -68 39 -68 -14 0 -43 -10 -60
-36 -60 l-23 0 -3 178 c-2 146 0 180 12 193 16 17 25 12 46 -26z m3009 5 c1
-11 -2 -20 -7 -20 -4 0 -7 11 -6 25 3 28 11 24 13 -5z m-76 -68 c1 -21 -1 -22
-14 -8 -11 10 -13 24 -9 43 7 25 8 25 15 8 4 -11 8 -30 8 -43z m51 38 c0 -5
-2 -10 -4 -10 -3 0 -8 5 -11 10 -3 6 -1 10 4 10 6 0 11 -4 11 -10z m-10412
-32 l-3 -33 -150 0 -150 0 0 25 c0 25 2 25 95 31 52 3 121 6 153 7 l58 2 -3
-32z m-638 -24 c0 -27 -4 -34 -20 -34 -16 0 -20 7 -20 34 0 32 15 49 33 39 4
-2 7 -20 7 -39z m11049 11 c3 -17 2 -17 -13 -3 -19 20 -21 31 -3 26 6 -3 14
-13 16 -23z m51 -4 c0 -5 -7 -12 -16 -15 -14 -5 -15 -4 -4 9 14 17 20 19 20 6z
m-3435 -33 c14 -6 25 -17 25 -24 0 -7 6 -11 13 -8 21 7 103 -31 121 -57 15
-22 15 -25 -2 -41 -19 -19 -114 -37 -161 -30 -24 3 -31 9 -31 26 0 11 -5 28
-11 36 -9 13 -10 12 -5 -2 3 -10 2 -18 -3 -18 -5 0 -12 16 -15 35 -5 27 -2 40
14 57 11 12 20 25 20 30 0 11 4 10 35 -4z m-515 -33 c0 -8 -4 -15 -10 -15 -5
0 -10 7 -10 15 0 8 5 15 10 15 6 0 10 -7 10 -15z m3984 -83 c0 -53 3 -82 10
-82 7 0 10 -19 7 -51 -2 -35 1 -54 10 -59 10 -7 10 -11 0 -24 -8 -9 -10 -16
-5 -16 4 0 -5 -14 -22 -32 -17 -18 -22 -29 -13 -25 63 22 285 69 387 82 114
14 354 20 324 8 -11 -4 -11 -8 1 -22 8 -9 18 -29 24 -46 11 -35 5 -125 -8
-125 -5 0 -9 -6 -9 -14 0 -8 -8 -21 -18 -28 -34 -25 -20 -52 60 -117 131 -106
199 -195 222 -294 12 -51 12 -53 -9 -52 -12 0 -29 6 -38 14 -14 11 -17 11 -17
1 0 -16 -13 -4 -16 14 -2 16 -52 74 -119 139 -61 59 -182 119 -285 142 -84 18
-76 15 -160 73 -34 23 -67 42 -72 42 -14 0 1 -43 20 -57 9 -7 12 -13 7 -13 -5
0 1 -7 13 -16 20 -14 22 -21 16 -77 -6 -62 -6 -62 32 -102 22 -22 66 -63 99
-90 33 -27 69 -58 79 -67 11 -10 23 -18 27 -18 17 0 3 -43 -16 -52 -11 -5 -37
-35 -57 -66 -43 -67 -74 -108 -105 -138 -13 -12 -23 -25 -23 -29 0 -4 -15 -24
-34 -44 -87 -92 -112 -120 -131 -144 -11 -15 -26 -27 -34 -27 -8 0 -11 -3 -8
-7 11 -10 -34 -53 -56 -53 -11 0 -49 22 -86 48 -88 65 -102 71 -66 31 17 -18
21 -27 11 -19 -16 13 -20 13 -24 1 -3 -10 -6 -10 -12 -1 -4 7 -13 9 -19 6 -11
-7 -176 -219 -211 -270 -14 -21 -163 -207 -185 -232 -5 -6 -26 -29 -45 -50
-19 -22 -59 -68 -89 -102 l-54 -64 49 33 c74 48 124 100 124 127 0 25 14 44
241 313 166 197 182 214 204 206 25 -10 18 -30 -36 -101 l-51 -68 23 -24 c25
-27 41 -32 33 -10 -8 20 45 136 62 136 7 0 19 -7 28 -15 9 -9 17 -11 21 -5 8
12 25 13 25 1 0 -14 -69 -112 -106 -151 -18 -19 -75 -91 -127 -160 -53 -69
-103 -133 -112 -143 -8 -10 -21 -29 -27 -42 -11 -24 -19 -29 -44 -26 -13 1
-94 -90 -114 -129 -12 -23 -14 -23 -20 -5 -7 19 -7 19 -18 0 -8 -14 -14 -17
-20 -8 -22 33 -41 -29 -19 -63 11 -19 -24 -26 -49 -9 -13 8 -30 12 -39 9 -11
-5 -16 -2 -14 7 2 8 -5 29 -15 47 -9 19 -15 40 -12 48 14 36 -20 4 -120 -113
-60 -71 -111 -130 -114 -133 -3 -3 -47 -55 -97 -116 -51 -61 -104 -119 -117
-128 -21 -13 -43 -15 -131 -9 -63 3 -110 2 -113 -3 -4 -5 -20 -15 -35 -22 -23
-10 -28 -10 -24 0 4 15 -31 50 -43 43 -5 -3 -4 7 1 22 4 16 23 87 40 158 36
151 83 295 99 305 7 4 11 11 10 15 -2 4 15 30 36 58 22 28 38 54 37 57 -1 4
11 21 26 38 20 21 41 68 66 149 20 65 68 197 105 293 37 96 71 186 75 200 4
14 13 32 20 40 16 20 45 96 45 118 0 10 8 27 18 38 10 10 31 38 47 61 142 203
280 376 385 487 118 123 213 190 372 261 70 30 86 41 77 51 -7 8 -11 69 -12
156 -1 155 12 222 41 216 14 -3 17 -17 16 -86z m-10666 61 c-15 -2 -42 -2 -60
0 -18 2 -6 4 27 4 33 0 48 -2 33 -4z m192 -55 c0 -12 -172 -10 -190 2 -10 7
17 10 88 8 56 -1 102 -6 102 -10z m1407 -60 c-2 -13 -4 -3 -4 22 0 25 2 35 4
23 2 -13 2 -33 0 -45z m9678 -44 c8 -20 15 -39 15 -43 -1 -8 -39 61 -40 72 -1
18 11 4 25 -29z m-11089 2 c3 -14 3 -30 -1 -35 -4 -7 -61 -11 -156 -11 l-149
0 0 30 0 29 98 4 c53 1 121 4 149 5 48 2 53 0 59 -22z m-643 -23 c6 -32 1 -43
-18 -43 -16 0 -31 43 -20 59 12 20 33 11 38 -16z m2064 -35 c-2 -13 -4 -3 -4
22 0 25 2 35 4 23 2 -13 2 -33 0 -45z m9353 16 c0 -18 -24 -18 -39 0 -10 11
-8 15 6 18 23 6 33 0 33 -18z m-156 2 c-10 -8 -21 -12 -24 -10 -5 6 21 24 34
24 6 0 1 -6 -10 -14z m-3133 -28 c1 -13 1 -29 0 -35 -1 -7 8 -13 19 -13 11 0
20 6 19 13 -3 25 1 47 10 47 4 0 6 -11 3 -25 -5 -28 12 -34 23 -7 5 14 9 11
21 -17 8 -18 14 -44 14 -56 0 -13 11 -36 23 -52 28 -33 57 -114 57 -159 0 -47
-21 -90 -43 -86 -17 3 -17 5 -1 29 11 17 15 38 11 63 -12 91 -55 127 -156 131
-55 2 -66 0 -75 -16 -6 -11 -17 -26 -24 -33 -11 -13 -14 -12 -19 7 -3 11 -9
21 -14 21 -5 0 -9 7 -9 15 0 8 -4 15 -10 15 -5 0 -10 5 -10 10 0 6 6 10 14 10
8 0 18 4 21 10 3 6 -1 7 -9 4 -17 -7 -22 11 -6 21 6 3 10 14 10 23 -1 16 -1
16 -11 0 -5 -10 -15 -18 -21 -18 -6 0 -3 9 7 20 10 11 28 19 39 19 12 -1 41
-1 66 0 38 2 41 4 23 11 -23 9 -33 50 -12 50 5 0 7 5 4 10 -3 6 3 10 14 10 15
0 21 -7 22 -22z m3026 -10 c-3 -7 -5 -2 -5 12 0 14 2 19 5 13 2 -7 2 -19 0
-25z m-3104 -3 c4 -8 2 -17 -3 -20 -6 -4 -10 3 -10 14 0 25 6 27 13 6z m-5919
-395 c24 -122 81 -349 115 -460 17 -52 28 -96 26 -98 -5 -5 -79 231 -104 333
-42 173 -102 517 -100 580 1 17 11 -37 24 -120 12 -82 30 -188 39 -235z m9079
367 c4 3 7 1 7 -5 0 -17 -16 -15 -31 6 -12 15 -12 16 2 5 9 -7 19 -10 22 -6z
m-10800 -14 c-13 -2 -33 -2 -45 0 -13 2 -3 4 22 4 25 0 35 -2 23 -4z m-479
-25 c11 -44 7 -98 -9 -105 -22 -8 -24 -4 -31 65 -6 58 -5 62 13 62 13 0 23 -9
27 -22z m1406 -28 c0 -21 -3 -41 -7 -43 -5 -3 -8 17 -8 43 0 26 3 46 8 43 4
-2 7 -22 7 -43z m-670 11 c0 -5 -30 -9 -67 -9 -45 0 -61 3 -48 9 28 11 115 11
115 0z m1615 -176 c65 -325 148 -606 242 -815 37 -84 143 -289 172 -334 33
-53 43 -86 14 -47 -10 13 -39 49 -64 80 -129 159 -231 350 -272 511 -14 52
-36 136 -51 185 -48 166 -77 333 -83 475 -3 74 -3 133 0 130 3 -3 22 -87 42
-185z m-926 -2 c1 -17 -2 -34 -6 -36 -5 -3 -9 29 -10 72 -1 64 0 70 7 36 5
-22 9 -54 9 -72z m-691 66 c3 -25 1 -26 -65 -32 -37 -4 -105 -7 -149 -7 -84 0
-94 5 -94 45 0 17 52 22 200 21 l105 -1 3 -26z m-644 -5 c12 -31 7 -56 -11
-52 -23 4 -32 68 -10 68 8 0 18 -7 21 -16z m7616 -40 c0 2 18 -14 40 -36 47
-44 60 -47 60 -15 1 21 1 22 15 3 15 -19 15 -19 15 5 1 22 1 23 14 6 14 -18
14 -18 18 0 3 13 12 4 32 -32 15 -27 40 -72 56 -100 16 -27 33 -65 36 -84 13
-65 138 -155 233 -168 38 -5 44 -3 81 37 46 48 51 46 16 -8 -50 -78 -71 -95
-108 -89 -25 4 -35 2 -35 -8 0 -8 4 -12 8 -10 3 3 13 -3 20 -12 12 -15 12 -16
-6 -9 -11 5 -54 10 -95 11 -102 2 -149 13 -215 48 -11 6 -33 17 -50 25 -16 9
-100 63 -185 121 -85 58 -189 128 -230 155 l-75 51 -3 55 c-2 55 -2 55 12 24
15 -33 19 -34 95 -18 20 4 22 7 10 15 -21 14 40 -1 75 -18 39 -20 68 -10 90
31 16 31 21 33 47 26 16 -5 29 -7 29 -6z m408 -83 c39 -23 72 -44 72 -47 0 -3
-19 5 -42 19 -24 14 -77 43 -120 65 -42 22 -74 43 -71 46 3 3 24 -5 47 -18 22
-13 74 -42 114 -65z m-7565 12 c-18 -2 -48 -2 -65 0 -18 2 -4 4 32 4 36 0 50
-2 33 -4z m5138 -40 c13 -16 12 -17 -3 -4 -10 7 -18 15 -18 17 0 8 8 3 21 -13z
m-4931 -1 c0 -4 -12 -8 -27 -9 -24 -1 -25 -1 -8 7 26 11 35 12 35 2z m677 -44
c-2 -13 -4 -5 -4 17 -1 22 1 32 4 23 2 -10 2 -28 0 -40z m-1394 -33 c9 -60 1
-82 -26 -72 -18 7 -30 119 -13 129 22 15 31 1 39 -57z m732 -25 c3 -11 3 -24
0 -30 -4 -6 -66 -10 -156 -10 l-149 0 0 30 0 30 149 0 c141 0 150 -1 156 -20z
m-645 -47 c0 -16 -4 -21 -15 -17 -18 7 -30 48 -19 65 10 16 34 -17 34 -48z
m557 -69 c-3 -3 -12 -4 -19 -1 -8 3 -5 6 6 6 11 1 17 -2 13 -5z m-88 -8 c-9
-8 -99 -13 -99 -5 0 5 23 9 52 9 28 0 49 -2 47 -4z m4980 -70 c-2 -2 -13 8
-23 22 l-19 27 24 -22 c12 -12 21 -24 18 -27z m-5489 -105 c10 -56 7 -71 -15
-71 -15 0 -20 13 -30 79 -5 32 -4 46 6 52 20 12 27 0 39 -60z m728 27 l3 -28
-150 0 c-141 0 -150 1 -156 20 -12 37 1 41 153 38 l147 -3 3 -27z m11115 -5
c-22 -34 -43 -52 -63 -53 -8 0 5 20 30 45 48 49 62 52 33 8z m-11770 -17 c5
-15 6 -30 2 -34 -9 -10 -35 28 -35 51 0 27 22 16 33 -17z m2063 -112 c-5 -13
-10 -14 -18 -6 -6 6 -8 18 -4 28 5 13 10 14 18 6 6 -6 8 -18 4 -28z m-1601 16
c-26 -11 -78 -12 -71 -2 3 5 24 9 48 10 32 0 38 -2 23 -8z m1555 -214 c26 -91
32 -128 34 -235 3 -124 -3 -151 -30 -151 -25 0 -41 162 -18 181 18 15 18 49 0
74 -11 17 -32 255 -21 244 2 -2 17 -53 35 -113z m-1310 79 c0 -25 -2 -25 -77
-25 -43 0 -108 -3 -145 -6 -65 -7 -68 -6 -77 17 -5 13 -7 27 -4 32 2 4 71 7
154 7 l149 0 0 -25z m-653 -58 c-2 -6 -11 0 -21 15 -10 15 -14 32 -10 39 8 14
37 -36 31 -54z m-68 -28 c11 -65 9 -79 -14 -79 -12 0 -35 75 -35 115 0 12 13
22 31 24 4 1 12 -27 18 -60z m5341 -99 c0 -5 -2 -10 -4 -10 -3 0 -8 5 -11 10
-3 6 -1 10 4 10 6 0 11 -4 11 -10z m-54 -27 c-10 -10 -19 5 -10 18 6 11 8 11
12 0 2 -7 1 -15 -2 -18z m-4520 -11 c6 -4 14 -17 18 -29 l7 -23 -151 0 c-127
0 -152 2 -157 15 -3 9 -2 19 2 23 3 4 59 10 123 13 64 3 124 6 132 7 8 1 20
-2 26 -6z m4519 -96 c-8 -98 -13 -116 -31 -116 -13 0 -14 12 -8 78 4 42 8 84
10 92 1 8 3 21 3 29 1 11 4 11 16 1 13 -11 15 -27 10 -84z m-5171 48 c11 -28
6 -39 -9 -20 -8 11 -15 23 -15 28 0 14 18 9 24 -8z m4325 -60 c9 -8 -45 -2
-64 6 -14 7 -8 8 20 3 22 -3 42 -7 44 -9z m-4382 -21 c-4 -3 -3 -11 2 -17 19
-23 23 -82 7 -95 -13 -11 -17 -5 -32 44 -13 48 -14 59 -3 66 16 10 35 12 26 2z
m3220 1 c-3 -3 -12 -4 -19 -1 -8 3 -5 6 6 6 11 1 17 -2 13 -5z m1040 -36 c-3
-7 -5 -2 -5 12 0 14 2 19 5 13 2 -7 2 -19 0 -25z m-1624 -83 c23 -35 30 -52
18 -41 -22 20 -81 117 -81 132 0 5 6 0 12 -11 6 -11 29 -47 51 -80z m2264 63
c-3 -7 -5 -2 -5 12 0 14 2 19 5 13 2 -7 2 -19 0 -25z m-760 -20 c-3 -7 -5 -2
-5 12 0 14 2 19 5 13 2 -7 2 -19 0 -25z m660 -10 c-3 -8 -6 -5 -6 6 -1 11 2
17 5 13 3 -3 4 -12 1 -19z m6296 9 c7 -18 -32 -79 -46 -70 -5 3 -7 2 -4 -4 7
-10 -49 -103 -62 -103 -3 0 -17 -18 -31 -39 -13 -22 -28 -38 -32 -35 -4 3 -8
-1 -8 -9 0 -8 -9 -17 -20 -20 -20 -5 -20 -3 4 40 29 51 178 252 187 252 4 1 9
-5 12 -12z m-6846 -19 c-3 -8 -6 -5 -6 6 -1 11 2 17 5 13 3 -3 4 -12 1 -19z
m572 -93 c-8 -38 -8 -38 -4 10 3 35 2 45 -5 35 -8 -12 -10 -12 -10 5 0 11 3
31 7 45 7 23 8 21 14 -15 4 -22 3 -58 -2 -80z m-4025 59 c3 -9 6 -20 6 -25 0
-13 -299 -7 -303 6 -4 17 84 33 189 34 84 1 103 -2 108 -15z m-674 -44 c7 -13
7 -20 1 -20 -6 0 -15 9 -21 20 -7 13 -7 20 -1 20 6 0 15 -9 21 -20z m2433 -69
c17 -25 51 -66 74 -91 24 -24 43 -49 43 -55 0 -5 -16 7 -35 28 -20 20 -37 37
-40 37 -3 0 -5 -11 -5 -25 0 -66 -83 55 -97 141 -6 36 -5 38 11 25 10 -8 32
-35 49 -60z m2645 47 c-5 -32 -28 -35 -28 -4 0 17 5 26 16 26 10 0 14 -7 12
-22z m-15 -109 c-3 -113 -130 -862 -141 -831 -1 5 20 171 47 368 27 197 52
388 56 424 8 83 14 102 28 97 8 -3 11 -25 10 -58z m-333 35 c0 -1 -11 -9 -25
-18 -25 -16 -25 -16 -14 2 9 15 39 27 39 16z m-1633 -24 c22 -26 14 -148 -8
-134 -5 3 -6 -2 -3 -10 3 -8 -3 -19 -14 -25 -19 -10 -19 -8 -11 27 25 102 27
125 13 139 -8 8 -14 16 -14 19 0 9 26 -2 37 -16z m-3153 -28 c2 -4 0 -14 -6
-22 -8 -12 -9 -12 -5 2 3 9 1 19 -6 22 -9 3 -9 5 0 5 6 1 14 -3 17 -7z m806
-41 c5 -11 10 -22 10 -25 0 -3 -68 -6 -152 -6 -91 0 -148 4 -142 9 16 16 137
39 206 40 57 1 69 -2 78 -18z m2055 -81 c14 -16 15 -20 4 -14 -23 13 -71 56
-89 79 -19 24 58 -34 85 -65z m1652 54 c-3 -3 -12 -4 -19 -1 -8 3 -5 6 6 6 11
1 17 -2 13 -5z m-4389 -29 c-3 -3 -9 2 -12 12 -6 14 -5 15 5 6 7 -7 10 -15 7
-18z m4275 18 c-7 -2 -19 -2 -25 0 -7 3 -2 5 12 5 14 0 19 -2 13 -5z m-4379
-19 c3 -8 2 -12 -4 -9 -6 3 -10 10 -10 16 0 14 7 11 14 -7z m4888 -6 c-7 -7
-12 -8 -12 -2 0 14 12 26 19 19 2 -3 -1 -11 -7 -17z m-2262 -8 c0 -5 -2 -10
-4 -10 -3 0 -8 5 -11 10 -3 6 -1 10 4 10 6 0 11 -4 11 -10z m-852 -41 c25 -8
34 -19 42 -50 6 -21 8 -50 4 -65 -8 -33 -61 -67 -84 -54 -18 10 -43 89 -36
112 2 7 7 25 10 41 7 30 17 32 64 16z m907 -17 c-3 -3 -11 0 -18 7 -9 10 -8
11 6 5 10 -3 15 -9 12 -12z m69 -62 c49 -52 52 -60 35 -77 -14 -14 -75 38 -85
71 -3 12 -8 29 -10 39 -9 30 12 19 60 -33z m995 32 c-24 -18 -77 -42 -154 -67
-38 -13 -143 -19 -245 -15 -36 1 -41 3 -25 11 14 6 3 7 -35 3 -40 -4 -51 -2
-40 5 20 14 7 14 -130 1 -85 -8 -113 -7 -145 5 -36 12 -10 14 265 13 315 -2
389 5 482 46 46 20 55 19 27 -2z m-2888 -52 c10 -6 19 -17 19 -25 0 -13 -22
-15 -132 -14 -142 1 -144 3 -28 30 90 21 115 22 141 9z m9740 -34 c13 8 3 -44
-12 -62 -19 -23 -39 -17 -39 13 0 28 32 73 38 54 2 -6 8 -8 13 -5z m-10406
-36 c3 -5 1 -10 -4 -10 -6 0 -11 5 -11 10 0 6 2 10 4 10 3 0 8 -4 11 -10z
m4622 -22 c-4 -18 -9 -48 -13 -67 -4 -22 -2 -36 6 -41 14 -8 14 -33 3 -105 -9
-59 -36 -70 -41 -17 -4 37 -16 41 -34 10 -12 -24 -12 -69 2 -78 7 -5 18 -42
27 -97 4 -25 2 -33 -10 -33 -8 0 -18 -7 -21 -16 -3 -9 -15 -14 -28 -12 -20 3
-23 -2 -26 -36 -4 -44 11 -67 30 -48 7 7 16 12 20 12 12 0 10 -68 -2 -75 -5
-3 -10 -20 -10 -37 0 -21 -6 -31 -19 -35 -20 -5 -36 -31 -46 -76 -7 -35 -25
-26 -25 13 0 16 -4 32 -10 35 -5 3 -10 16 -10 29 0 12 -4 26 -10 32 -16 16 0
145 19 151 35 10 46 21 49 49 6 55 2 108 -8 118 -13 13 -13 63 -1 71 5 3 21
31 35 61 20 43 29 54 39 46 8 -7 17 -6 30 3 16 11 17 19 8 49 -7 28 -6 47 6
81 18 55 48 64 40 13z m-2277 2 c0 -11 -4 -20 -10 -20 -5 0 -10 9 -10 20 0 11
5 20 10 20 6 0 10 -9 10 -20z m60 -20 c0 -5 -4 -10 -10 -10 -5 0 -10 5 -10 10
0 6 5 10 10 10 6 0 10 -4 10 -10z m-2483 -36 c-3 -3 -12 -4 -19 -1 -8 3 -5 6
6 6 11 1 17 -2 13 -5z m4028 -54 c-5 -8 -11 -8 -17 -2 -6 6 -7 16 -3 22 5 8
11 8 17 2 6 -6 7 -16 3 -22z m62 24 c-3 -3 -12 -4 -19 -1 -8 3 -5 6 6 6 11 1
17 -2 13 -5z m-3239 -56 c3 -15 -10 -17 -102 -20 -58 -2 -102 0 -98 4 14 13
118 37 157 35 28 -1 41 -7 43 -19z m9122 -13 c-7 -9 -15 -13 -18 -10 -3 2 1
11 8 20 7 9 15 13 18 10 3 -2 -1 -11 -8 -20z m-6951 -156 c46 -16 85 -29 87
-29 11 0 2 -76 -12 -105 -20 -42 -51 -50 -120 -30 -80 23 -121 50 -118 78 1
12 3 27 3 33 1 6 12 27 25 47 17 25 21 38 13 41 -26 13 43 -7 122 -35z m-2924
-9 c3 -5 1 -10 -4 -10 -6 0 -11 5 -11 10 0 6 2 10 4 10 3 0 8 -4 11 -10z
m9155 -8 c0 -13 -61 -65 -68 -58 -3 4 7 20 23 36 30 29 45 37 45 22z m-5952
-120 c2 -24 -1 -32 -12 -32 -12 0 -16 10 -16 36 0 45 24 42 28 -4z m-68 -3 c0
-11 -4 -17 -10 -14 -5 3 -10 15 -10 26 0 11 5 17 10 14 6 -3 10 -15 10 -26z
m6914 -6 c9 -23 -10 -47 -129 -167 -97 -96 -145 -128 -145 -95 0 7 -8 18 -17
25 -17 12 -17 15 5 57 36 68 147 185 180 189 76 9 100 7 106 -9z m-5707 -46
c3 -54 -47 -104 -63 -63 -5 14 47 107 56 99 3 -2 6 -19 7 -36z m5325 11 c-7
-7 -12 -8 -12 -2 0 14 12 26 19 19 2 -3 -1 -11 -7 -17z m-252 -23 c36 -18 30
-41 -11 -47 -27 -4 -29 -2 -29 29 0 38 1 38 40 18z m-6985 -8 c-6 -15 -110
-81 -145 -92 -22 -7 -23 -6 -11 9 7 9 19 16 25 17 6 0 38 18 71 39 33 21 61
39 62 39 1 1 0 -5 -2 -12z m7190 -17 c3 -5 1 -10 -4 -10 -6 0 -11 5 -11 10 0
6 2 10 4 10 3 0 8 -4 11 -10z m530 -34 c1 -20 0 -34 -3 -32 -4 2 -9 -68 -11
-157 -4 -200 -2 -189 -37 -209 -27 -15 -34 -15 -89 -1 -33 8 -71 23 -85 32
-14 10 -41 24 -60 31 -19 7 -43 20 -53 28 -16 15 -6 27 155 183 95 92 174 166
176 164 2 -2 5 -19 7 -39z m-601 25 c3 -5 -13 -31 -37 -57 -23 -27 -62 -73
-86 -102 -23 -28 -47 -49 -52 -46 -19 12 -7 42 39 94 103 118 122 134 136 111z
m-5582 -53 c21 -27 23 -95 4 -120 -12 -16 -56 -38 -76 -38 -33 0 -54 125 -30
170 10 19 18 21 48 16 21 -3 44 -15 54 -28z m-1164 -16 c24 -13 42 -25 40 -27
-4 -5 -128 53 -128 59 0 7 44 -9 88 -32z m6842 -41 c0 -6 -13 -25 -30 -43 -37
-40 -39 -29 -4 18 28 36 34 40 34 25z m-530 -26 c-7 -9 -15 -13 -18 -10 -3 2
1 11 8 20 7 9 15 13 18 10 3 -2 -1 -11 -8 -20z m100 19 c0 -11 -79 -120 -104
-143 -63 -59 -33 30 35 104 36 39 69 58 69 39z m-4900 -55 c18 -32 11 -86 -13
-115 -22 -25 -24 -25 -40 -10 -35 36 -10 164 29 149 8 -3 19 -14 24 -24z
m4973 -36 c-26 -43 -103 -133 -113 -133 -14 0 25 62 71 114 45 51 69 61 42 19z
m435 -33 c30 -45 28 -50 -13 -31 -27 13 -34 22 -35 44 0 36 18 31 48 -13z
m-5558 -28 c0 -26 7 -45 20 -57 19 -17 20 -17 39 6 16 20 21 21 35 10 10 -9
16 -29 16 -56 0 -34 -5 -46 -25 -59 -23 -15 -25 -15 -35 3 -5 11 -10 29 -10
40 0 19 -47 61 -69 61 -20 0 -23 27 -6 59 21 42 35 39 35 -7z m-1460 -7 c0 -8
-4 -15 -9 -15 -13 0 -22 16 -14 24 11 11 23 6 23 -9z m1704 -67 c-7 -63 -18
-98 -32 -98 -4 0 -18 9 -31 19 -18 13 -22 23 -16 40 4 13 12 20 20 17 19 -7
45 26 45 57 0 15 5 27 10 27 7 0 9 -21 4 -62z m-1707 26 c-3 -3 -12 -4 -19 -1
-8 3 -5 6 6 6 11 1 17 -2 13 -5z"/>
<path d="M5326 6545 c4 -8 8 -15 10 -15 2 0 4 7 4 15 0 8 -4 15 -10 15 -5 0
-7 -7 -4 -15z"/>
<path d="M4253 5443 c15 -2 37 -2 50 0 12 2 0 4 -28 4 -27 0 -38 -2 -22 -4z"/>
<path d="M4343 5433 c9 -2 23 -2 30 0 6 3 -1 5 -18 5 -16 0 -22 -2 -12 -5z"/>
<path d="M4470 5401 c79 -30 132 -58 189 -100 21 -16 32 -20 29 -11 -10 31
-232 142 -281 140 -7 -1 22 -14 63 -29z"/>
<path d="M4146 5393 c-3 -8 18 -11 75 -11 77 0 109 10 69 23 -31 10 -139 1
-144 -12z"/>
<path d="M4270 5339 c6 -11 21 -24 33 -29 12 -5 16 -9 8 -9 -19 -1 27 -51 46
-51 7 0 13 -4 13 -10 0 -5 16 -10 34 -10 l35 0 -12 33 c-8 22 -12 27 -15 15
-4 -20 -52 -26 -52 -7 0 6 6 9 14 6 10 -4 12 0 8 15 -3 13 -1 19 5 15 5 -3 10
1 10 10 0 20 -55 43 -102 43 -33 0 -35 -2 -25 -21z m100 -39 c0 -13 -11 -13
-30 0 -12 8 -11 10 8 10 12 0 22 -4 22 -10z"/>
<path d="M4055 5300 c4 -6 11 -8 16 -5 14 9 11 15 -7 15 -8 0 -12 -5 -9 -10z"/>
<path d="M3958 5252 c-263 -172 -476 -548 -579 -1025 -17 -78 -19 -101 -9
-112 10 -12 10 -15 -2 -15 -21 0 -35 -99 -16 -111 9 -6 8 -10 -5 -15 -19 -7
-24 -59 -7 -69 6 -4 4 -12 -5 -21 -18 -19 -20 -60 -2 -67 9 -4 9 -7 -1 -15 -7
-5 -10 -16 -7 -24 4 -9 2 -19 -4 -23 -16 -9 -14 -102 2 -108 9 -4 8 -8 -3 -16
-13 -10 -13 -12 0 -22 11 -8 12 -12 3 -16 -16 -6 -17 -33 -2 -33 8 0 7 -5 -2
-16 -10 -13 -10 -17 2 -26 11 -7 11 -11 2 -15 -7 -2 -13 -11 -13 -18 0 -7 6
-16 13 -18 10 -4 10 -6 0 -6 -9 -1 -13 -20 -13 -62 0 -33 4 -58 8 -55 5 3 7
-27 4 -66 -2 -43 0 -68 6 -65 5 4 7 -14 4 -45 -3 -35 -1 -49 6 -44 7 4 9 -5 5
-29 -3 -20 -1 -41 6 -48 6 -8 8 -17 5 -20 -11 -11 19 -142 35 -155 9 -8 10
-11 4 -7 -9 4 -13 -1 -13 -15 0 -12 4 -18 10 -15 7 4 8 -3 4 -21 -5 -19 -4
-25 5 -20 9 6 10 0 5 -20 -5 -19 -4 -25 5 -20 9 6 10 0 5 -20 -5 -18 -3 -25 4
-20 6 3 13 2 17 -4 3 -5 1 -10 -4 -10 -6 0 -11 -7 -11 -16 0 -8 4 -13 9 -9 5
3 13 0 17 -6 4 -8 3 -9 -4 -5 -18 11 -15 -6 29 -137 53 -158 153 -366 236
-490 109 -162 282 -324 398 -373 37 -15 107 -9 83 8 -9 7 -6 8 10 5 27 -6 112
27 112 43 0 6 4 9 9 6 11 -7 41 3 41 13 0 3 -30 17 -67 30 -90 33 -200 109
-291 203 -42 42 -79 75 -84 72 -5 -3 -8 -2 -7 3 4 21 -2 33 -17 33 -8 0 -12 5
-9 10 3 6 1 10 -4 10 -6 0 -11 7 -11 16 0 8 -4 12 -10 9 -5 -3 -10 0 -10 9 0
8 -4 16 -8 18 -5 2 -24 25 -43 52 -19 27 -47 67 -63 90 -42 60 -129 226 -122
233 3 4 6 0 6 -8 0 -12 2 -11 11 1 8 12 9 10 4 -9 -5 -18 -4 -22 6 -16 9 6 11
3 6 -9 -4 -10 -1 -19 8 -22 7 -3 11 -12 8 -20 -3 -8 0 -14 6 -14 6 0 11 -7 11
-15 0 -8 5 -15 10 -15 6 0 10 -6 10 -14 0 -21 17 -29 24 -11 3 8 -1 21 -9 29
-8 8 -15 24 -15 35 0 11 -4 22 -9 26 -5 3 -12 19 -16 35 -4 17 -11 30 -16 30
-6 0 -7 4 -4 10 3 5 0 20 -7 32 -6 13 -12 28 -13 33 0 10 -32 116 -43 145 -3
8 -7 22 -8 30 -1 8 -7 35 -14 60 -6 25 -13 54 -15 65 -2 11 -8 44 -14 74 -6
29 -11 63 -11 75 0 37 20 -4 21 -44 0 -19 3 -43 7 -52 7 -16 10 -16 50 2 23
10 42 15 42 10 0 -6 -3 -10 -7 -10 -5 0 -23 -14 -42 -31 l-34 -31 17 -62 c58
-209 88 -296 102 -296 9 0 14 -12 14 -38 0 -21 6 -46 13 -57 24 -35 28 -68 10
-87 -10 -11 -12 -18 -5 -18 7 0 12 -7 12 -16 0 -8 5 -12 11 -8 6 3 9 15 6 25
-8 28 11 12 29 -24 8 -18 23 -48 34 -67 20 -37 27 -65 9 -40 -9 13 -10 13 -6
0 2 -8 12 -15 23 -15 12 0 20 -8 22 -22 2 -12 9 -27 17 -33 11 -9 20 0 44 47
35 68 39 60 11 -22 -18 -52 -18 -60 -5 -75 8 -9 12 -20 8 -25 -5 -4 -3 -6 2
-2 6 3 37 -12 70 -34 104 -68 154 -83 280 -82 156 1 151 0 127 21 -56 47 -67
56 -69 54 -2 -1 -3 0 -3 3 0 11 11 9 29 -7 11 -9 22 -14 25 -11 3 4 6 1 6 -6
0 -8 7 -10 20 -6 15 5 18 3 14 -8 -3 -8 0 -18 7 -23 7 -4 10 -3 6 3 -4 6 0 16
8 23 13 11 14 10 9 -6 -6 -18 -6 -18 9 1 17 22 12 39 -9 31 -8 -3 -13 0 -11 7
1 7 -9 12 -25 12 -14 0 -37 9 -50 21 -12 11 -38 31 -56 43 -18 12 -30 27 -27
32 4 5 -1 6 -9 3 -13 -5 -11 -12 10 -42 l26 -37 -31 34 c-17 19 -28 37 -26 39
6 7 -38 38 -47 34 -5 -1 -8 4 -8 12 0 7 -18 33 -40 57 -22 24 -40 47 -40 50 0
14 14 17 31 6 14 -9 16 -14 6 -26 -10 -12 -9 -14 6 -8 10 4 17 2 17 -6 0 -15
76 -104 83 -97 3 3 -15 31 -39 63 -24 32 -44 70 -44 83 0 29 -35 89 -52 89 -7
0 -26 25 -43 56 -16 31 -36 55 -43 53 -7 -1 -8 0 -2 3 5 2 10 9 10 14 0 6 -5
7 -12 3 -7 -4 -8 -3 -4 5 10 16 -24 102 -37 94 -6 -3 -7 -1 -3 5 4 6 3 23 0
39 -7 25 -8 26 -16 8 -5 -14 -6 -9 -2 15 4 27 3 32 -6 20 -8 -12 -9 -9 -4 13
4 16 2 27 -4 27 -7 0 -8 10 -2 31 5 16 7 36 5 42 -2 7 -9 31 -15 53 -5 23 -17
44 -25 47 -10 4 -12 1 -9 -11 5 -15 4 -15 -6 1 -6 9 -9 21 -5 26 3 5 -1 12 -7
14 -10 4 -10 6 0 6 6 1 12 6 12 12 0 5 -4 8 -9 4 -6 -3 -8 10 -5 30 2 19 0 35
-5 35 -4 0 -7 11 -6 25 2 14 0 25 -5 25 -5 0 -7 11 -5 25 1 14 -3 25 -9 25 -6
0 -4 5 4 10 8 5 10 10 4 10 -6 0 -10 15 -9 33 1 17 -3 35 -9 39 -7 5 -5 8 5 8
13 0 18 -14 23 -62 10 -98 37 -222 51 -238 19 -22 44 -121 38 -151 -7 -39 110
-345 128 -333 5 3 6 -2 3 -10 -3 -9 -1 -16 6 -16 6 0 8 -4 5 -10 -3 -5 2 -10
12 -10 20 0 63 -72 63 -107 0 -21 52 -95 114 -162 36 -38 159 -101 185 -94 39
10 77 119 39 111 -7 -2 -13 8 -14 22 0 14 -14 56 -29 94 -29 69 -29 70 -44 45
-9 -13 -31 -40 -49 -59 l-33 -35 35 54 35 54 -21 43 c-12 24 -25 41 -29 38 -4
-2 -5 4 -3 13 6 23 -47 105 -63 99 -7 -3 -10 1 -7 9 3 7 0 24 -6 37 -11 22
-10 22 9 -2 11 -14 21 -29 21 -34 0 -5 2 -7 5 -4 3 2 -2 26 -11 52 -9 26 -14
49 -11 52 3 3 8 -8 12 -25 6 -30 25 -44 25 -19 0 20 -33 133 -41 142 -5 6 -18
2 -31 -11 -13 -11 -36 -28 -53 -38 -29 -16 -29 -16 4 12 88 74 81 63 69 118
-6 28 -13 51 -14 53 -1 2 -17 -4 -36 -13 -31 -15 -21 -3 17 20 15 9 15 16 1
74 -8 34 -16 65 -19 67 -2 2 -27 -8 -56 -22 -29 -14 -55 -23 -57 -21 -2 2 24
16 58 32 34 16 57 30 51 32 -6 2 -43 -12 -82 -31 -70 -36 -124 -50 -65 -18 17
9 30 23 28 30 -1 7 0 8 3 2 8 -17 30 -11 61 15 17 14 35 25 42 25 9 0 10 20 5
78 -8 85 -9 87 -25 77 -8 -5 -10 -30 -6 -74 l5 -66 -11 65 c-6 36 -15 68 -22
72 -6 5 -7 8 -1 8 7 0 10 28 9 73 -2 39 0 62 2 50 3 -13 9 -23 13 -23 6 0 7
392 2 440 -1 4 -18 5 -38 3 -24 -2 -32 0 -21 5 15 6 13 9 -13 21 -36 16 -35
18 11 26 25 4 31 3 20 -5 -11 -7 -11 -10 -2 -10 7 0 15 7 18 15 6 14 8 13 19
-2 12 -16 13 -13 12 20 0 20 -4 33 -7 27 -3 -5 -11 -5 -20 0 -12 7 -10 11 10
18 l25 10 -30 12 c-16 7 -24 14 -18 17 8 3 11 15 7 31 -4 21 -3 24 5 12 10
-13 11 -13 11 0 -1 8 -7 24 -15 34 -8 11 -15 29 -14 40 0 14 4 9 10 -13 6 -18
12 -31 15 -28 5 5 -6 53 -22 91 -6 16 -4 18 17 14 20 -3 25 0 27 17 1 12 8 46
16 76 12 48 12 56 -1 71 -9 10 -20 15 -24 12 -10 -6 -53 -140 -53 -164 0 -8
-5 -18 -11 -22 -6 -5 -3 -8 8 -8 9 0 17 -4 17 -10 0 -5 -7 -6 -17 -3 -11 4
-14 3 -9 -5 4 -7 3 -12 -1 -12 -5 0 -9 -9 -10 -21 -1 -15 3 -19 13 -15 9 3 12
1 9 -4 -3 -6 -13 -10 -21 -10 -8 0 -14 -9 -14 -20 0 -11 -4 -20 -9 -20 -5 0
-5 16 -1 38 5 20 11 48 14 62 8 42 47 163 63 194 14 26 13 30 -9 53 l-23 26
30 -19 c17 -10 37 -25 45 -33 10 -9 15 -10 18 -2 2 6 8 11 13 11 4 0 6 -6 3
-14 -3 -8 -1 -17 5 -20 5 -4 15 10 20 31 15 52 14 57 -9 78 -20 18 -21 18 -36
-1 -14 -18 -14 -18 -4 5 9 17 9 26 1 34 -6 6 -11 16 -11 22 0 5 5 3 10 -5 8
-13 11 -12 24 5 14 19 14 19 9 -6 -3 -16 1 -30 11 -39 21 -17 23 -14 41 55
l16 59 -48 50 c-26 28 -38 42 -25 32 39 -33 24 -3 -23 44 -49 49 -59 71 -20
43 13 -10 25 -23 25 -30 0 -6 19 -27 43 -46 50 -40 68 -52 65 -40 -1 4 8 30
20 57 26 58 26 56 6 56 -8 0 -13 4 -10 9 3 4 -1 17 -9 27 -21 28 -18 40 3 13
l19 -22 11 32 c6 17 9 39 6 49 -4 11 -3 13 3 5 6 -8 13 -3 25 17 15 27 15 30
-3 51 -10 12 -19 27 -19 33 0 7 3 7 8 1 11 -15 32 -17 32 -2 0 18 -29 57 -43
57 -7 -1 -30 -9 -52 -20 -22 -11 -46 -19 -53 -20 -30 0 -172 -193 -172 -234 0
-35 -41 -118 -56 -112 -14 6 -27 -21 -17 -36 3 -6 1 -8 -4 -5 -11 7 -35 -53
-84 -203 -12 -36 -23 -90 -24 -120 -4 -90 -16 -160 -30 -168 -27 -15 -61 -451
-36 -466 13 -9 15 -142 2 -151 -6 -3 -7 -36 -4 -77 4 -48 3 -69 -4 -65 -6 4
-9 23 -6 42 3 25 1 35 -9 35 -10 0 -9 3 2 10 8 5 10 10 4 10 -16 0 -12 33 4
43 9 6 12 29 11 73 -2 53 -6 68 -23 80 -14 10 -16 14 -6 14 13 0 13 2 0 10
-13 9 -13 10 0 10 13 0 13 1 0 10 -13 9 -13 11 0 20 13 9 13 10 0 10 -13 0
-13 1 0 10 13 9 13 10 0 10 -13 0 -13 1 0 10 13 9 13 11 0 20 -8 5 -10 10 -5
10 6 0 9 26 9 60 -1 39 2 60 10 60 6 0 4 5 -4 10 -8 5 -10 10 -5 10 6 0 10 15
10 33 -1 17 3 38 9 46 8 11 8 13 -1 7 -7 -4 -13 -3 -13 3 0 5 6 12 13 14 6 3
7 6 1 6 -14 1 -5 61 9 61 6 0 8 3 4 6 -3 4 3 14 14 23 25 20 41 154 18 148 -8
-2 -11 -2 -6 0 4 3 4 10 1 15 -4 7 -2 8 5 4 8 -6 10 2 6 26 -4 24 -3 29 5 18
5 -8 10 -10 10 -5 0 6 -5 16 -12 23 -9 9 -8 12 6 12 13 0 17 5 13 20 -3 11 -2
18 3 15 10 -6 23 43 14 57 -5 7 -2 8 6 3 10 -6 12 -1 7 26 -4 20 -4 29 2 21 6
-10 11 -5 20 19 14 40 14 59 0 39 -7 -10 -9 -11 -7 -2 2 8 7 12 12 10 5 -2 19
21 32 50 13 30 28 51 33 48 14 -9 51 57 51 92 0 20 16 55 46 99 l46 68 -45
-45 c-25 -25 -46 -55 -49 -65 -2 -11 -10 -20 -17 -20 -8 0 -31 -23 -51 -52
-20 -29 -40 -56 -45 -60 -18 -17 33 62 82 127 28 37 49 71 46 74 -4 3 -2 6 4
6 5 0 26 24 46 53 20 28 45 58 57 65 11 7 20 21 20 33 0 11 4 18 9 15 4 -3 19
6 31 19 36 38 15 50 -78 49 -50 -1 -100 -10 -142 -24 -63 -21 -176 -87 -201
-116 -6 -7 -16 -11 -23 -7 -6 3 -8 2 -3 -2 4 -5 -7 -24 -25 -42 l-32 -33 23
-53 c36 -81 35 -97 -1 -39 -18 28 -35 52 -38 52 -6 0 -72 -141 -109 -233 -6
-16 -16 -25 -22 -21 -8 5 -8 9 1 14 7 4 13 19 13 34 0 14 3 24 7 21 10 -6 21
38 12 47 -4 4 -17 -12 -27 -37 -11 -25 -24 -45 -29 -45 -4 0 -6 -7 -3 -15 6
-14 -10 -32 -20 -22 -6 6 35 85 84 164 18 29 33 57 33 63 0 5 5 10 10 10 14 0
12 -11 -6 -31 -9 -10 -14 -23 -12 -30 2 -7 14 7 26 30 12 23 18 40 12 36 -18
-11 -11 14 10 35 11 11 20 23 21 28 1 4 6 6 11 4 6 -2 8 4 5 13 -4 8 -2 15 4
15 6 0 9 7 5 15 -3 9 0 15 9 15 9 0 15 10 16 23 0 12 3 17 5 10 9 -20 65 52
58 73 -4 14 -3 15 3 6 8 -10 12 -10 23 2 7 9 17 13 23 9 5 -3 7 -1 3 5 -8 13
114 124 170 154 l42 22 -26 40 c-36 58 -51 69 -71 53 -14 -10 -14 -10 -4 4 7
9 10 19 6 22 -14 15 -51 4 -105 -31z m41 -25 c-2 -2 -17 -11 -34 -21 l-30 -17
24 20 c13 12 28 21 34 21 6 0 8 -1 6 -3z m-149 -129 c0 -11 -8 -18 -20 -18
-23 0 -23 0 -9 37 8 22 12 24 19 13 6 -8 10 -23 10 -32z m-120 -112 c0 -3 -4
-8 -10 -11 -5 -3 -10 -1 -10 4 0 6 5 11 10 11 6 0 10 -2 10 -4z m-40 -56 c0
-5 -5 -10 -11 -10 -5 0 -7 5 -4 10 3 6 8 10 11 10 2 0 4 -4 4 -10z m486 -65
c-9 -9 -17 -11 -21 -5 -3 5 -2 10 4 10 5 0 13 10 17 23 7 18 8 19 12 5 2 -10
-3 -25 -12 -33z m144 -148 c0 -2 -12 -14 -27 -28 -24 -22 -24 -13 0 19 8 11
27 17 27 9z m-216 -46 c3 -5 -1 -11 -9 -14 -9 -4 -12 -1 -8 9 6 16 10 17 17 5z
m-124 -41 c0 -5 -2 -10 -4 -10 -3 0 -8 5 -11 10 -3 6 -1 10 4 10 6 0 11 -4 11
-10z m90 -10 c-6 -11 -13 -20 -16 -20 -2 0 0 9 6 20 6 11 13 20 16 20 2 0 0
-9 -6 -20z m-135 -60 c3 -5 1 -10 -4 -10 -6 0 -11 5 -11 10 0 6 2 10 4 10 3 0
8 -4 11 -10z m46 -41 c-12 -19 -21 -30 -21 -26 0 12 33 67 38 63 1 -2 -6 -19
-17 -37z m-61 1 c0 -5 -4 -10 -10 -10 -5 0 -10 5 -10 10 0 6 5 10 10 10 6 0
10 -4 10 -10z m250 -35 c-6 -15 -13 -25 -17 -22 -3 4 0 21 8 38 16 39 24 24 9
-16z m147 -10 c0 -8 -3 -13 -5 -10 -3 3 -11 -3 -19 -13 -16 -19 -7 4 10 26 12
15 14 15 14 -3z m-707 -5 c0 -5 -5 -10 -11 -10 -6 0 -8 -7 -5 -16 3 -8 2 -12
-4 -9 -6 3 -10 1 -10 -6 0 -7 -2 -10 -5 -7 -8 7 16 58 27 58 4 0 8 -4 8 -10z
m26 -73 c-18 -14 -34 -73 -71 -267 -9 -47 -20 -99 -26 -116 -17 -55 -11 -72
31 -100 52 -35 51 -45 -4 -29 l-43 13 -8 -106 c-12 -178 -13 -286 -2 -304 8
-11 8 -23 0 -40 -7 -15 -8 -55 -3 -113 4 -50 10 -128 14 -175 4 -71 4 -77 -4
-35 -27 144 -38 416 -25 610 9 132 23 260 32 300 3 17 8 41 10 55 6 50 10 65
17 83 5 9 6 23 3 31 -3 8 -1 16 4 18 5 2 11 14 13 28 1 14 5 32 8 40 21 59 28
91 24 99 -4 5 -1 11 4 13 6 2 12 14 13 28 3 43 22 53 25 13 2 -23 -2 -39 -12
-46z m-59 -5 c-13 -3 -16 -10 -12 -25 5 -18 4 -19 -5 -5 -14 23 -3 48 18 40
15 -6 15 -7 -1 -10z m346 3 c-3 -9 -8 -14 -10 -11 -3 3 -2 9 2 15 9 16 15 13
8 -4z m-38 -105 c-13 -36 -24 -60 -25 -55 -1 15 44 138 47 128 1 -4 -8 -37
-22 -73z m-326 30 c0 -10 -3 -8 -9 5 -12 27 -12 43 0 25 5 -8 9 -22 9 -30z
m-45 -89 c-10 -33 -19 -59 -21 -57 -3 2 3 32 13 65 9 34 19 60 21 58 2 -3 -4
-32 -13 -66z m561 22 c-3 -16 -10 -32 -15 -37 -5 -5 -4 7 2 27 13 43 23 50 13
10z m-688 -75 c-3 -8 -6 -5 -6 6 -1 11 2 17 5 13 3 -3 4 -12 1 -19z m460 -10
c-3 -8 -6 -5 -6 6 -1 11 2 17 5 13 3 -3 4 -12 1 -19z m-371 -90 c-31 -144 -48
-296 -56 -498 l-8 -205 3 210 c3 116 11 257 20 315 18 124 46 262 52 256 3 -2
-2 -37 -11 -78z m425 15 c-12 -20 -14 -14 -5 12 4 9 9 14 11 11 3 -2 0 -13 -6
-23z m129 -27 c0 -3 -4 -8 -10 -11 -5 -3 -10 -1 -10 4 0 6 5 11 10 11 6 0 10
-2 10 -4z m-530 -10 c0 -3 -4 -8 -10 -11 -5 -3 -10 -1 -10 4 0 6 5 11 10 11 6
0 10 -2 10 -4z m305 -102 c-9 -55 -18 -114 -21 -133 -3 -18 -7 -31 -9 -29 -3
2 2 49 10 104 20 133 27 166 32 161 2 -3 -3 -49 -12 -103z m-448 64 c-3 -8 -6
-5 -6 6 -1 11 2 17 5 13 3 -3 4 -12 1 -19z m649 -74 c-4 -20 -10 -34 -13 -30
-3 3 -2 21 1 42 4 20 10 34 13 30 3 -3 2 -21 -1 -42z m-526 -14 c0 -5 -4 -10
-10 -10 -5 0 -10 5 -10 10 0 6 5 10 10 10 6 0 10 -4 10 -10z m644 2 c-6 -4
-14 -14 -17 -22 -4 -10 -6 -8 -6 8 -1 15 5 22 17 22 10 0 13 -3 6 -8z m-657
-54 c-3 -8 -6 -5 -6 6 -1 11 2 17 5 13 3 -3 4 -12 1 -19z m268 -8 c3 -5 1 -10
-4 -10 -6 0 -11 5 -11 10 0 6 2 10 4 10 3 0 8 -4 11 -10z m-398 -22 c-3 -8 -6
-5 -6 6 -1 11 2 17 5 13 3 -3 4 -12 1 -19z m828 4 c-3 -3 -11 0 -18 7 -9 10
-8 11 6 5 10 -3 15 -9 12 -12z m-695 -2 c0 -5 -5 -10 -11 -10 -5 0 -7 5 -4 10
3 6 8 10 11 10 2 0 4 -4 4 -10z m255 -80 c3 -5 1 -10 -4 -10 -6 0 -11 5 -11
10 0 6 2 10 4 10 3 0 8 -4 11 -10z m260 -9 c3 -5 1 -12 -5 -16 -5 -3 -10 1
-10 9 0 18 6 21 15 7z m-658 -43 c-3 -8 -6 -5 -6 6 -1 11 2 17 5 13 3 -3 4
-12 1 -19z m133 2 c0 -5 -4 -10 -10 -10 -5 0 -10 5 -10 10 0 6 5 10 10 10 6 0
10 -4 10 -10z m257 -12 c-3 -8 -6 -5 -6 6 -1 11 2 17 5 13 3 -3 4 -12 1 -19z
m-390 -30 c-3 -8 -6 -5 -6 6 -1 11 2 17 5 13 3 -3 4 -12 1 -19z m876 -18 c2
-14 2 -19 0 -12 -3 6 -11 12 -19 12 -14 0 -19 21 -7 34 10 9 21 -5 26 -34z
m-756 8 c-3 -8 -6 -5 -6 6 -1 11 2 17 5 13 3 -3 4 -12 1 -19z m533 -22 c0 -36
-12 -52 -31 -40 -8 4 -7 9 2 15 12 8 11 11 -1 19 -12 7 -12 10 -1 10 7 0 11 6
7 15 -3 9 0 15 9 15 10 0 15 -11 15 -34z m-260 14 c0 -5 -5 -10 -11 -10 -5 0
-7 5 -4 10 3 6 8 10 11 10 2 0 4 -4 4 -10z m357 -32 c-3 -7 -5 -2 -5 12 0 14
2 19 5 13 2 -7 2 -19 0 -25z m-305 -178 c3 -107 2 -163 -2 -125 -8 73 -13 331
-6 324 2 -2 5 -92 8 -199z m415 168 c-3 -7 -5 -2 -5 12 0 14 2 19 5 13 2 -7 2
-19 0 -25z m-467 -8 c0 -5 -5 -10 -11 -10 -5 0 -7 5 -4 10 3 6 8 10 11 10 2 0
4 -4 4 -10z m-273 -32 c-3 -8 -6 -5 -6 6 -1 11 2 17 5 13 3 -3 4 -12 1 -19z
m0 -40 c-3 -8 -6 -5 -6 6 -1 11 2 17 5 13 3 -3 4 -12 1 -19z m273 12 c0 -5 -4
-10 -10 -10 -5 0 -10 5 -10 10 0 6 5 10 10 10 6 0 10 -4 10 -10z m240 0 c0 -5
-5 -10 -11 -10 -5 0 -7 5 -4 10 3 6 8 10 11 10 2 0 4 -4 4 -10z m120 -20 c0
-5 -2 -10 -4 -10 -3 0 -8 5 -11 10 -3 6 -1 10 4 10 6 0 11 -4 11 -10z m-105
-10 c-3 -5 -11 -10 -16 -10 -6 0 -7 5 -4 10 3 6 11 10 16 10 6 0 7 -4 4 -10z
m-255 -20 c0 -5 -4 -10 -10 -10 -5 0 -10 5 -10 10 0 6 5 10 10 10 6 0 10 -4
10 -10z m467 -107 c-2 -16 -4 -3 -4 27 0 30 2 43 4 28 2 -16 2 -40 0 -55z
m-212 39 c-3 -3 -11 0 -18 7 -9 10 -8 11 6 5 10 -3 15 -9 12 -12z m14 -134 c1
-10 -6 -18 -15 -18 -8 0 -12 5 -8 11 3 6 0 15 -7 20 -10 6 -11 9 -1 9 6 0 12
10 13 23 1 21 1 21 9 -3 4 -14 8 -33 9 -42z m-562 -20 c-2 -13 -4 -3 -4 22 0
25 2 35 4 23 2 -13 2 -33 0 -45z m371 -138 c0 -16 -3 -10 -9 15 -4 22 -8 54
-7 70 0 22 3 19 9 -15 4 -25 7 -56 7 -70z m-361 38 c-2 -13 -4 -5 -4 17 -1 22
1 32 4 23 2 -10 2 -28 0 -40z m10 -65 c-3 -10 -5 -4 -5 12 0 17 2 24 5 18 2
-7 2 -21 0 -30z m682 -53 c1 -13 0 -13 -9 0 -5 8 -9 24 -9 35 l0 20 9 -20 c5
-11 9 -27 9 -35z m-322 8 c-3 -7 -5 -2 -5 12 0 14 2 19 5 13 2 -7 2 -19 0 -25z
m-350 -15 c-3 -10 -5 -4 -5 12 0 17 2 24 5 18 2 -7 2 -21 0 -30z m572 -53 l-1
-25 -8 25 c-4 14 -8 32 -9 40 -1 13 0 13 9 0 5 -8 9 -26 9 -40z m-562 -2 c-3
-8 -6 -5 -6 6 -1 11 2 17 5 13 3 -3 4 -12 1 -19z m10 -50 c-3 -7 -5 -2 -5 12
0 14 2 19 5 13 2 -7 2 -19 0 -25z m403 -146 c17 -57 30 -106 27 -108 -3 -4
-65 189 -73 231 l-4 20 9 -20 c5 -11 23 -67 41 -123z m-393 106 c-3 -8 -6 -5
-6 6 -1 11 2 17 5 13 3 -3 4 -12 1 -19z m303 12 c0 -5 -2 -10 -4 -10 -3 0 -8
5 -11 10 -3 6 -1 10 4 10 6 0 11 -4 11 -10z m-293 -52 c-3 -8 -6 -5 -6 6 -1
11 2 17 5 13 3 -3 4 -12 1 -19z m693 -33 c0 -5 -5 -3 -10 5 -5 8 -10 20 -10
25 0 6 5 3 10 -5 5 -8 10 -19 10 -25z m-683 -7 c-3 -8 -6 -5 -6 6 -1 11 2 17
5 13 3 -3 4 -12 1 -19z m443 -23 c0 -5 -5 -3 -10 5 -5 8 -10 20 -10 25 0 6 5
3 10 -5 5 -8 10 -19 10 -25z m-381 -136 c1 8 4 12 7 8 3 -3 2 -13 -4 -23 -7
-13 -15 -1 -36 62 -35 106 -32 120 4 19 16 -44 29 -74 29 -66z m546 23 c-5 -5
-25 43 -25 61 1 7 7 -3 16 -22 8 -19 12 -36 9 -39z m-255 -12 c0 -5 -2 -10 -4
-10 -3 0 -8 5 -11 10 -3 6 -1 10 4 10 6 0 11 -4 11 -10z m-260 -115 c0 -5 -5
-3 -10 5 -5 8 -10 20 -10 25 0 6 5 3 10 -5 5 -8 10 -19 10 -25z m390 -54 c0
-12 -28 36 -34 59 -4 14 2 8 14 -14 11 -22 20 -42 20 -45z m-513 37 c-3 -8 -6
-5 -6 6 -1 11 2 17 5 13 3 -3 4 -12 1 -19z m553 -104 c17 -31 29 -58 27 -60
-2 -2 -18 23 -36 56 -41 76 -34 79 9 4z m200 7 c-1 -10 -6 -7 -15 9 -19 33
-18 50 0 26 8 -11 15 -27 15 -35z m-145 -21 c9 -16 13 -30 11 -30 -3 0 -12 14
-21 30 -9 17 -13 30 -11 30 3 0 12 -13 21 -30z m-78 -82 c-3 -8 -6 -5 -6 6 -1
11 2 17 5 13 3 -3 4 -12 1 -19z m363 -90 c0 -6 -7 -5 -15 2 -8 7 -15 17 -15
22 0 6 7 5 15 -2 8 -7 15 -17 15 -22z m160 -138 c0 -14 -9 -12 -26 4 -20 21
-17 28 6 16 11 -6 20 -15 20 -20z m-283 -26 c-3 -3 -12 -4 -19 -1 -8 3 -5 6 6
6 11 1 17 -2 13 -5z m18 -24 c3 -5 1 -10 -4 -10 -6 0 -11 5 -11 10 0 6 2 10 4
10 3 0 8 -4 11 -10z m16 -23 c-10 -9 -11 -8 -5 6 3 10 9 15 12 12 3 -3 0 -11
-7 -18z m39 -7 c0 -5 -5 -10 -11 -10 -5 0 -7 5 -4 10 3 6 8 10 11 10 2 0 4 -4
4 -10z m-513 -85 c8 -9 13 -18 11 -21 -3 -2 -13 5 -23 16 -21 23 -11 27 12 5z
m160 -155 c14 -11 22 -20 18 -20 -4 0 -18 9 -32 20 -14 11 -22 20 -18 20 4 0
18 -9 32 -20z m103 -70 c8 -5 11 -10 5 -10 -5 0 -17 5 -25 10 -8 5 -10 10 -5
10 6 0 17 -5 25 -10z m90 -40 c8 -5 11 -10 5 -10 -5 0 -17 5 -25 10 -8 5 -10
10 -5 10 6 0 17 -5 25 -10z"/>
<path d="M5196 5282 c-3 -2 -28 -6 -58 -9 -29 -3 -57 -8 -63 -12 -5 -4 -29
-13 -52 -21 -24 -7 -43 -16 -43 -21 0 -4 -10 -10 -22 -13 -34 -9 -82 -52 -74
-65 4 -6 28 -22 54 -35 26 -14 56 -32 67 -41 19 -16 18 -16 -8 -1 -76 45 -79
39 -21 -45 30 -44 54 -84 54 -89 0 -6 7 -10 15 -10 20 0 65 -29 65 -43 0 -5
-8 -3 -18 6 -23 21 -43 22 -36 2 9 -23 -2 -18 -36 18 -30 30 -31 30 -15 4 10
-15 16 -29 14 -31 -2 -1 -29 -7 -59 -13 -74 -15 -89 -19 -132 -37 l-37 -16
-47 68 c-58 82 -53 76 -59 71 -2 -3 16 -35 40 -72 25 -36 45 -70 45 -75 0 -4
-12 -15 -27 -25 -16 -9 -42 -29 -59 -44 -18 -15 -41 -35 -53 -43 -12 -8 -21
-20 -21 -26 0 -27 -30 -22 -46 7 -8 17 -18 29 -20 26 -3 -3 2 -19 11 -37 9
-17 14 -37 12 -43 -2 -7 -12 3 -21 22 l-18 33 -14 -27 c-8 -15 -14 -33 -14
-39 0 -7 -9 -31 -20 -53 -11 -22 -24 -58 -29 -79 -6 -22 -16 -58 -22 -80 -11
-36 -10 -44 4 -58 20 -21 27 -20 27 2 1 13 8 9 29 -15 15 -18 32 -33 37 -33 6
0 19 -7 30 -16 18 -14 16 -15 -21 -9 -22 4 -46 11 -52 17 -9 8 -13 7 -13 -3 0
-15 96 -62 147 -72 30 -6 33 -4 38 21 4 15 13 42 21 60 8 18 14 37 14 42 0 5
14 24 31 41 17 17 40 52 51 78 20 47 54 91 71 91 5 0 6 -16 2 -37 -6 -35 -4
-39 50 -90 32 -29 60 -53 63 -53 3 0 1 5 -5 11 -7 7 -8 21 0 45 11 37 23 44
29 17 3 -14 7 -12 18 11 20 40 33 42 47 6 6 -16 18 -30 27 -30 9 0 16 -4 16
-9 0 -10 34 -8 63 4 9 4 23 3 30 -2 36 -28 95 33 97 101 0 60 18 4 32 -101 1
-7 15 -15 32 -19 25 -5 33 -2 46 17 8 13 23 32 33 41 9 10 17 21 17 24 0 3 12
20 26 37 20 24 25 38 21 64 -5 30 -3 33 19 33 l24 0 -5 93 c-3 50 -9 109 -14
129 -5 21 -5 36 -1 33 5 -3 11 -23 15 -44 4 -22 13 -45 21 -52 8 -6 14 -17 14
-24 0 -8 8 -11 19 -8 12 3 17 11 14 19 -3 8 -2 26 2 42 6 25 8 26 20 9 7 -10
16 -43 20 -74 4 -31 9 -62 12 -70 3 -7 -1 -13 -10 -13 -9 0 -18 13 -22 31 -6
28 -8 29 -21 12 -15 -20 -19 -37 -6 -29 4 2 6 -12 4 -31 -4 -33 -3 -36 18 -30
21 5 21 5 3 -15 -13 -15 -15 -22 -5 -25 13 -5 17 -43 5 -43 -4 0 -20 15 -36
33 -28 31 -28 31 -25 7 2 -18 -2 -25 -14 -25 -25 0 -27 -5 -52 -106 -24 -96
-21 -139 11 -139 7 0 13 -7 13 -15 0 -9 9 -15 23 -16 20 0 20 -1 3 -8 -18 -7
-18 -8 -3 -14 9 -3 17 -12 17 -20 0 -14 88 -107 102 -107 5 0 6 5 3 10 -3 6
-1 10 4 10 6 0 11 -4 11 -9 0 -5 9 -7 20 -4 13 3 20 0 20 -8 -1 -24 -38 -61
-64 -63 -26 -3 -59 -30 -49 -40 4 -3 25 -6 47 -6 43 0 71 -20 71 -50 0 -8 6
-14 13 -13 6 2 12 -2 12 -7 0 -14 46 -13 69 2 26 16 53 -6 49 -41 -3 -23 -7
-26 -38 -23 -52 4 -180 -19 -155 -28 11 -4 25 -4 31 1 14 12 38 -15 31 -34 -4
-10 -25 -12 -91 -9 -56 3 -86 1 -86 -6 0 -18 70 -35 120 -29 54 7 60 4 53 -24
-4 -16 -11 -19 -27 -14 -11 4 -41 9 -66 11 -42 4 -44 3 -25 -10 11 -9 25 -20
32 -25 7 -6 13 -7 15 -1 2 5 22 -8 44 -30 23 -21 44 -36 48 -33 3 4 6 -1 6
-10 0 -10 3 -16 8 -15 4 1 18 -4 31 -11 24 -13 24 -14 6 -27 -16 -12 -21 -12
-34 0 -14 13 -16 12 -17 -10 -1 -13 1 -24 5 -24 3 0 12 -10 20 -21 12 -20 11
-21 -13 -17 -20 4 -24 2 -16 -7 7 -9 7 -15 1 -19 -5 -4 -12 -2 -16 4 -11 17
-23 11 -61 -29 -20 -22 -50 -43 -67 -47 -25 -5 -28 -8 -14 -16 23 -12 21 -28
-2 -28 -11 0 -23 -5 -26 -10 -4 -6 -21 -8 -40 -4 -42 8 -78 -3 -71 -22 3 -7 0
-16 -6 -20 -7 -5 -3 -10 10 -15 28 -11 28 -33 -2 -72 -13 -18 -34 -55 -47 -83
-19 -41 -36 -59 -81 -88 -32 -20 -62 -36 -66 -36 -5 0 -14 18 -21 40 -18 61
-33 50 -31 -22 3 -87 2 -91 -16 -84 -13 5 -15 -10 -14 -117 1 -67 1 -128 1
-135 -1 -7 -9 -12 -18 -10 -15 3 -18 -4 -15 -44 3 -36 0 -48 -10 -48 -12 0
-14 19 -12 99 3 103 -4 152 -21 148 -6 -1 -11 33 -13 83 -2 98 -8 130 -23 130
-6 0 -7 -4 -4 -10 3 -5 3 -10 -2 -10 -4 0 -9 -33 -11 -73 -3 -65 0 -79 28
-131 28 -55 30 -64 30 -172 0 -88 -3 -114 -13 -114 -11 0 -13 21 -9 103 4 83
1 110 -12 135 -9 18 -19 32 -22 32 -2 0 0 -8 5 -18 11 -21 18 -168 9 -178 -18
-17 -27 11 -21 70 5 54 2 71 -18 110 -13 26 -28 50 -33 54 -6 3 -1 -10 11 -30
13 -22 22 -58 24 -94 4 -51 1 -59 -15 -62 -16 -3 -17 1 -11 37 7 43 -9 111
-26 111 -6 0 -8 4 -5 8 2 4 -4 13 -15 20 -16 10 -19 9 -19 -3 0 -8 -3 -15 -7
-15 -5 0 -16 -27 -27 -60 -10 -33 -22 -60 -27 -60 -12 0 -12 93 0 106 5 5 11
21 13 36 2 22 -7 37 -45 73 -30 28 -47 51 -43 60 7 19 36 20 36 2 0 -8 12 -24
28 -38 15 -13 24 -20 20 -15 -4 5 -3 15 3 23 9 10 7 13 -10 13 -17 0 -21 6
-21 35 0 34 12 43 53 36 6 -1 9 15 6 35 0 4 5 11 13 15 7 5 8 9 2 9 -6 0 -11
7 -11 15 0 8 5 15 10 15 5 0 4 7 -3 15 -9 11 -9 15 -1 15 8 0 9 5 2 18 -12 23
-71 29 -71 7 0 -9 -4 -13 -10 -10 -5 3 -10 1 -10 -4 0 -6 6 -11 13 -11 8 0 13
-10 13 -22 -1 -18 -9 -24 -36 -29 -19 -4 -40 -2 -47 3 -7 5 -26 7 -43 3 -27
-6 -30 -4 -30 19 0 28 9 33 27 15 7 -7 22 -9 40 -4 15 5 32 9 37 9 5 1 11 7
14 15 3 8 0 11 -7 7 -6 -4 -28 -2 -48 3 -24 7 -41 7 -47 1 -18 -18 -36 -10
-36 14 0 30 16 42 36 26 8 -8 28 -10 50 -7 24 4 37 2 40 -7 9 -24 44 -6 44 21
0 21 -3 23 -14 14 -10 -9 -16 -9 -21 -1 -4 7 -27 10 -52 9 l-46 -3 -19 52
c-11 29 -25 53 -31 54 -62 8 -65 6 -72 -44 -4 -26 -11 -46 -15 -43 -5 3 -16 2
-25 -1 -11 -5 -13 -9 -5 -14 14 -8 1 -42 -14 -37 -6 3 -10 10 -8 17 2 8 -3 10
-13 6 -9 -3 -26 -6 -38 -7 -12 0 -16 -3 -9 -6 17 -7 15 -21 -5 -27 -10 -3 5
-4 32 -1 l50 3 -3 -42 -4 -43 -56 -14 c-32 -7 -49 -15 -39 -17 9 -2 17 -8 17
-13 0 -5 15 -9 34 -9 42 0 68 -9 60 -21 -3 -5 -1 -9 3 -9 5 0 7 -18 5 -40 -4
-36 -7 -40 -49 -56 -38 -15 -42 -19 -27 -25 11 -4 33 -8 49 -9 18 -2 23 -4 13
-7 -14 -3 -16 -9 -9 -22 16 -30 6 -53 -32 -71 l-36 -18 -19 37 c-10 20 -27 69
-36 109 -10 39 -22 72 -26 72 -5 0 -11 14 -15 31 -4 17 -9 29 -11 26 -6 -6 16
-118 28 -144 6 -11 8 -26 4 -31 -3 -6 -2 -13 3 -16 4 -3 11 -25 15 -48 4 -24
11 -56 16 -73 5 -16 16 -55 25 -85 9 -30 19 -64 24 -75 5 -11 19 -47 31 -80
24 -63 61 -146 70 -155 3 -3 13 -21 23 -40 10 -19 15 -26 12 -15 l-5 20 16
-20 c10 -12 15 -14 12 -5 -3 8 -2 24 2 35 6 18 10 16 45 -18 21 -20 42 -34 48
-30 5 3 7 2 4 -4 -8 -13 38 -57 52 -49 5 4 13 1 17 -5 4 -8 3 -9 -4 -5 -7 4
-12 5 -12 3 0 -22 199 -97 255 -97 30 0 35 -4 35 -22 l1 -23 17 21 c11 13 29
21 50 21 25 0 30 -3 20 -14 -6 -7 -19 -11 -29 -8 -11 4 -19 2 -19 -4 0 -6 -22
-48 -49 -93 -27 -46 -48 -85 -46 -86 17 -18 246 184 260 230 9 26 33 31 29 5
-2 -12 -2 -16 2 -9 6 12 34 17 34 6 0 -3 -5 -15 -12 -27 -10 -20 -10 -21 5 -8
10 7 20 31 23 52 6 37 28 68 40 56 7 -7 -55 -150 -92 -209 -16 -26 -54 -88
-84 -138 -30 -50 -56 -86 -58 -80 -2 6 6 26 17 46 12 19 26 55 32 80 6 24 15
44 20 44 5 0 9 6 9 13 0 7 12 29 26 50 26 39 37 74 28 89 -3 4 -38 -24 -77
-63 -40 -39 -110 -96 -157 -126 -47 -31 -86 -57 -88 -59 -10 -7 22 -45 43 -50
14 -3 25 -10 25 -14 0 -8 98 -36 113 -32 4 1 7 -2 7 -7 0 -5 11 -11 25 -14 22
-4 30 2 52 42 15 25 59 101 99 168 50 85 82 154 104 225 30 95 52 139 64 127
12 -11 -104 -370 -160 -498 -13 -29 -24 -57 -24 -62 0 -13 64 -11 97 3 15 6
34 12 42 14 8 1 27 12 42 23 16 12 33 21 39 21 5 0 10 5 10 10 0 16 17 12 24
-6 9 -22 -105 -71 -198 -85 -70 -10 -74 -13 -90 -45 -9 -19 -16 -37 -16 -39 0
-20 158 19 245 60 64 30 178 122 169 136 -3 5 1 6 8 4 13 -5 64 48 134 140 62
81 134 211 202 365 26 59 84 241 78 247 -2 2 -21 -47 -42 -109 -31 -96 -155
-362 -174 -378 -4 -3 -18 -22 -33 -44 -46 -69 -110 -138 -185 -197 -40 -33
-77 -59 -82 -59 -15 0 -19 29 -4 41 12 10 13 9 8 -5 -8 -22 9 -20 30 3 11 12
15 25 11 33 -6 10 -5 10 5 1 10 -10 26 1 74 50 66 66 136 150 136 161 0 4 9
17 20 28 12 13 18 29 14 40 -3 11 -1 17 6 16 7 -2 17 6 23 17 7 11 14 22 17
25 12 12 30 51 30 65 0 8 3 15 8 15 4 0 13 15 20 33 7 17 18 40 23 50 7 13 7
23 -1 32 -8 10 -9 31 -4 67 l9 53 5 -55 c4 -41 8 -50 14 -35 4 11 12 29 17 40
51 117 130 487 144 685 10 128 12 384 4 475 -4 55 -3 82 5 87 8 5 8 8 0 8 -6
0 -16 43 -23 103 -7 56 -15 113 -18 127 -4 14 -6 28 -5 32 3 13 -42 202 -78
328 -12 41 -24 85 -27 98 -3 13 -13 22 -24 22 -16 0 -17 3 -8 18 8 13 5 30
-15 76 -14 32 -26 64 -26 71 0 6 -9 20 -19 29 -11 10 -23 31 -26 47 -4 16 -11
29 -16 29 -5 0 -9 6 -9 13 0 15 -52 117 -61 117 -9 0 40 -179 63 -230 34 -73
109 -292 105 -304 -3 -7 -7 -5 -10 4 -3 8 -22 67 -43 130 -22 63 -40 107 -42
97 -2 -10 3 -36 12 -57 9 -22 18 -59 21 -82 7 -63 28 -138 37 -138 4 0 8 -30
8 -67 1 -38 5 -88 11 -113 5 -25 13 -61 18 -81 14 -65 25 -69 38 -14 10 43 11
45 10 15 0 -19 6 -46 15 -60 24 -38 51 -400 30 -400 -5 0 -8 37 -9 83 0 45 -3
98 -6 117 -4 19 -10 54 -13 77 -3 24 -10 40 -15 37 -5 -3 -9 3 -9 12 0 13 -3
15 -11 7 -7 -7 -11 -67 -10 -176 1 -138 -2 -168 -15 -181 -32 -32 -36 -19 -29
107 8 150 -4 244 -37 270 -22 18 -22 19 -4 33 16 11 19 25 17 79 -1 36 -6 89
-12 118 -6 29 -19 113 -29 187 -11 74 -26 167 -36 205 -39 165 -45 192 -49
220 -19 119 -46 180 -115 259 -41 48 -150 156 -150 150 0 -4 -12 5 -26 20 -15
14 -33 26 -40 26 -8 0 -14 4 -14 9 0 5 -15 13 -32 16 -18 4 -47 16 -65 26 -17
11 -35 19 -40 18 -4 -1 -11 0 -15 1 -9 3 -9 3 -58 14 -38 10 -108 14 -114 8z
m214 -142 c0 -5 -2 -10 -4 -10 -3 0 -8 5 -11 10 -3 6 -1 10 4 10 6 0 11 -4 11
-10z m260 -113 c-3 -1 -27 22 -55 53 l-49 55 54 -52 c30 -29 52 -54 50 -56z
m-529 -63 c12 -13 18 -24 12 -24 -5 0 -21 12 -34 28 -14 15 -41 40 -60 55 -28
24 -26 23 13 -4 26 -17 57 -42 69 -55z m575 9 c15 -20 23 -33 16 -29 -13 8
-56 66 -49 66 3 0 17 -17 33 -37z m-506 -32 c0 8 6 5 14 -6 15 -21 10 -49 -6
-38 -6 3 -3 -8 8 -26 10 -17 23 -31 28 -31 5 0 6 -3 2 -7 -4 -4 -18 6 -31 22
-13 17 -24 24 -25 18 0 -7 -4 -13 -10 -13 -13 0 -29 65 -23 91 l6 22 19 -22
c10 -13 18 -17 18 -10z m148 -101 c0 -9 -3 -7 -8 5 -5 11 -8 29 -8 40 0 16 2
15 8 -5 4 -14 8 -32 8 -40z m-264 -39 c11 -12 16 -21 12 -21 -11 0 -66 43 -66
52 0 12 32 -6 54 -31z m56 14 c13 -14 21 -27 18 -30 -2 -3 -17 9 -33 25 -16
17 -24 30 -19 30 6 0 21 -11 34 -25z m-142 -20 c20 -19 33 -35 27 -35 -15 0
-92 69 -77 70 7 0 29 -16 50 -35z m217 5 c10 -11 16 -20 13 -20 -3 0 -13 9
-23 20 -10 11 -16 20 -13 20 3 0 13 -9 23 -20z m-299 -22 c44 -34 55 -46 46
-52 -5 -3 -28 13 -53 34 -47 42 -41 55 7 18z m-78 -69 c23 -17 42 -33 42 -35
0 -10 -19 -1 -64 31 -27 19 -43 35 -35 35 8 0 34 -14 57 -31z m325 -16 c-7 -2
-19 -2 -25 0 -7 3 -2 5 12 5 14 0 19 -2 13 -5z m-405 -33 c23 -17 42 -32 42
-35 0 -7 -72 34 -90 51 -26 25 6 15 48 -16z m-48 -75 c47 -24 71 -45 52 -45
-5 0 -36 16 -68 35 -67 40 -57 47 16 10z m-75 -72 c48 -23 44 -35 -5 -15 -22
9 -40 20 -40 25 0 10 5 9 45 -10z m1035 -82 c0 -21 -16 -2 -25 29 -7 24 -7 24
9 5 8 -11 16 -27 16 -34z m-1078 -10 c53 -24 85 -47 76 -56 -4 -4 -14 0 -23 9
-9 9 -21 16 -26 16 -16 0 -89 35 -89 42 0 12 15 10 62 -11z m1448 -147 c0 -30
-23 -28 -28 2 -3 16 -1 16 7 4 9 -13 11 -13 11 3 0 9 2 17 5 17 3 0 5 -12 5
-26z m1 -61 c-12 -20 -14 -14 -5 12 4 9 9 14 11 11 3 -2 0 -13 -6 -23z m-269
-79 c-5 -26 -10 -30 -23 -17 -14 14 -3 46 14 40 6 -2 10 -13 9 -23z m109 -615
c-6 -14 -10 -18 -11 -9 -1 8 -6 4 -10 -10 -6 -19 -8 -13 -9 30 l-1 54 20 -20
c17 -16 19 -25 11 -45z m-11 -64 c10 -12 10 -15 -4 -15 -9 0 -16 7 -16 15 0 8
2 15 4 15 2 0 9 -7 16 -15z m257 -247 c-3 -7 -5 -2 -5 12 0 14 2 19 5 13 2 -7
2 -19 0 -25z m-10 -135 c-3 -10 -5 -2 -5 17 0 19 2 27 5 18 2 -10 2 -26 0 -35z
m-1259 2 c3 -3 0 -5 -7 -5 -8 0 -11 -7 -7 -15 3 -10 -1 -18 -12 -21 -9 -3 -25
-10 -34 -15 -11 -5 -19 -5 -23 2 -4 6 -20 7 -36 4 -26 -6 -29 -4 -29 18 0 22
4 24 43 24 23 -1 46 -6 50 -12 6 -6 7 -3 4 7 -3 9 -3 18 0 21 6 6 43 0 51 -8z
m1042 -32 c0 -13 4 -23 10 -23 18 0 42 -49 42 -85 0 -47 -6 -51 -47 -36 -31
11 -37 10 -53 -5 -16 -17 -17 -17 -20 0 -2 10 1 37 7 60 5 22 13 58 16 78 4
29 10 36 25 35 14 -1 20 -9 20 -24z m207 -50 c-3 -10 -5 -2 -5 17 0 19 2 27 5
18 2 -10 2 -26 0 -35z m-10 -65 c-3 -7 -5 -2 -5 12 0 14 2 19 5 13 2 -7 2 -19
0 -25z m-10 -60 c-3 -8 -6 -5 -6 6 -1 11 2 17 5 13 3 -3 4 -12 1 -19z m-250
-30 c-3 -8 -6 -5 -6 6 -1 11 2 17 5 13 3 -3 4 -12 1 -19z m240 -20 c-3 -8 -6
-5 -6 6 -1 11 2 17 5 13 3 -3 4 -12 1 -19z m-1527 -59 c-18 -13 -20 -19 -10
-20 11 0 11 -2 2 -6 -9 -4 -10 -8 -2 -18 8 -9 6 -17 -5 -29 -17 -16 -40 -12
-29 5 3 5 0 8 -8 7 -7 -2 -12 3 -10 10 1 6 -2 12 -7 12 -4 0 -8 10 -7 22 1 23
20 31 74 35 l26 1 -24 -19z m1267 -1 c-3 -8 -6 -5 -6 6 -1 11 2 17 5 13 3 -3
4 -12 1 -19z m0 -75 c-3 -10 -5 -4 -5 12 0 17 2 24 5 18 2 -7 2 -21 0 -30z
m-1192 -11 c-19 -16 -95 -45 -102 -39 -10 11 2 18 54 32 61 17 59 16 48 7z
m183 -59 c11 -5 50 -119 43 -126 -13 -13 -61 14 -61 35 0 10 -3 18 -8 18 -9 0
-32 72 -32 102 l0 21 28 -24 c15 -13 28 -25 30 -26z m-163 -59 c-53 -25 -87
-32 -68 -13 13 13 82 38 103 38 8 0 -7 -11 -35 -25z m1150 -37 c-3 -12 -7 -40
-10 -62 -2 -22 -8 -56 -14 -75 -8 -32 -9 -33 -10 -8 -2 48 21 178 30 172 5 -3
7 -15 4 -27z m-1025 -14 c-1 -10 -112 -63 -130 -63 -22 0 1 19 56 46 50 24 74
30 74 17z m861 -70 c-12 -20 -14 -14 -5 12 4 9 9 14 11 11 3 -2 0 -13 -6 -23z
m261 -22 c4 -3 14 -19 22 -35 l15 -29 6 26 c4 15 12 27 17 27 5 0 7 -6 5 -12
-3 -7 -14 -38 -24 -68 -19 -59 -113 -225 -113 -200 0 8 9 30 20 48 26 43 25
48 -9 55 -20 4 -32 16 -41 38 -17 40 -14 116 6 147 13 19 20 22 52 16 20 -3
40 -9 44 -13z m-1068 -14 c-6 -17 -84 -67 -104 -67 -26 1 71 77 102 79 4 1 5
-5 2 -12z m56 -66 c0 -10 -38 -39 -77 -60 -36 -18 -19 9 25 41 40 29 52 34 52
19z m877 -13 c-3 -8 -6 -5 -6 6 -1 11 2 17 5 13 3 -3 4 -12 1 -19z m-809 -30
c-3 -15 -79 -78 -93 -78 -8 1 83 89 93 90 1 0 1 -6 0 -12z m819 -30 c-3 -8 -6
-5 -6 6 -1 11 2 17 5 13 3 -3 4 -12 1 -19z m-773 -39 c-19 -21 -54 -44 -54
-35 0 3 14 19 32 35 36 33 52 33 22 0z m71 -29 c-16 -16 -33 -30 -39 -30 -5 0
3 14 19 30 16 17 33 30 39 30 5 0 -3 -13 -19 -30z m635 -254 c0 -3 -4 -8 -10
-11 -5 -3 -10 -1 -10 4 0 6 5 11 10 11 6 0 10 -2 10 -4z m-160 -42 c0 -8 -4
-14 -10 -14 -5 0 -10 9 -10 21 0 11 5 17 10 14 6 -3 10 -13 10 -21z"/>
<path d="M4725 5250 c16 -16 33 -30 39 -30 5 0 -3 14 -19 30 -16 17 -33 30
-39 30 -5 0 3 -13 19 -30z"/>
<path d="M4420 5206 c0 -10 112 -88 117 -82 11 11 -69 82 -94 83 -13 1 -23 0
-23 -1z"/>
<path d="M4786 5196 c3 -8 18 -22 32 -32 27 -17 27 -17 -2 15 -33 35 -38 37
-30 17z"/>
<path d="M4168 5183 c7 -3 16 -2 19 1 4 3 -2 6 -13 5 -11 0 -14 -3 -6 -6z"/>
<path d="M4204 5158 c-5 -7 57 -51 63 -44 8 8 -11 36 -24 36 -8 0 -12 4 -9 8
3 5 -2 9 -10 9 -8 0 -17 -4 -20 -9z"/>
<path d="M4160 5145 c-7 -8 -21 -15 -31 -15 -10 0 -22 -6 -26 -14 -4 -8 -17
-15 -28 -18 -11 -2 -21 -12 -23 -22 -3 -14 0 -17 12 -13 24 9 19 2 -10 -18
-20 -13 -28 -14 -34 -5 -10 17 -30 3 -30 -21 0 -10 -3 -19 -8 -19 -4 0 -24
-17 -44 -37 -92 -95 -96 -104 -21 -46 100 76 244 119 362 108 l65 -6 -25 20
c-19 16 -25 17 -27 5 -2 -8 -8 -14 -13 -14 -6 0 -7 5 -4 10 3 6 3 16 -2 23 -4
6 -8 16 -8 21 0 5 -9 14 -20 20 -11 6 -24 16 -30 21 -29 31 -42 35 -55 20z
m20 -45 c-8 -5 -19 -10 -25 -10 -5 0 -3 5 5 10 8 5 20 10 25 10 6 0 3 -5 -5
-10z"/>
<path d="M4546 5112 c-3 -5 4 -18 16 -28 21 -19 21 -19 8 6 -17 33 -17 33 -24
22z"/>
<path d="M4882 5088 c12 -21 26 -38 31 -38 13 0 7 11 -24 43 l-31 32 24 -37z"/>
<path d="M4282 5102 c2 -4 26 -29 54 -55 52 -48 84 -60 84 -31 0 12 -7 15 -24
12 -17 -4 -23 -1 -19 9 3 7 10 13 16 13 5 0 -1 9 -14 21 -13 12 -23 24 -22 28
1 4 -5 8 -13 8 -10 0 -6 -10 13 -31 l28 -30 -40 32 c-36 29 -71 43 -63 24z"/>
<path d="M5750 5098 c0 -9 5 -20 10 -23 13 -8 13 5 0 25 -8 13 -10 13 -10 -2z"/>
<path d="M4920 5031 c0 -6 5 -13 10 -16 6 -3 10 1 10 9 0 9 -4 16 -10 16 -5 0
-10 -4 -10 -9z"/>
<path d="M4625 5020 c3 -5 11 -10 16 -10 6 0 7 5 4 10 -3 6 -11 10 -16 10 -6
0 -7 -4 -4 -10z"/>
<path d="M4356 4978 c5 -8 2 -9 -9 -5 -10 3 -17 2 -17 -3 0 -6 -6 -10 -13 -10
-12 0 -81 -74 -131 -140 l-20 -25 25 23 c14 12 30 22 35 22 6 0 28 18 49 40
22 22 46 38 53 35 7 -3 24 3 36 12 19 15 22 22 13 40 -6 13 -14 23 -19 23 -5
0 -6 -5 -2 -12z"/>
<path d="M4430 4986 c0 -2 7 -7 16 -10 8 -3 12 -2 9 4 -6 10 -25 14 -25 6z"/>
<path d="M4956 4977 c3 -10 9 -15 12 -12 3 3 0 11 -7 18 -10 9 -11 8 -5 -6z"/>
<path d="M4422 4965 c9 -10 21 -16 28 -13 7 2 -1 10 -16 17 -27 12 -28 11 -12
-4z"/>
<path d="M5820 4952 c0 -18 50 -102 61 -102 5 0 1 17 -10 38 -26 50 -50 81
-51 64z"/>
<path d="M4463 4934 c-8 -22 13 -42 29 -26 6 6 8 15 4 19 -4 4 -12 1 -17 -7
-8 -11 -9 -10 -4 8 7 25 -2 30 -12 6z"/>
<path d="M4518 4858 c-4 -8 3 -29 14 -46 28 -44 35 -40 9 6 l-22 37 26 -28
c32 -35 33 -18 2 19 -19 21 -25 24 -29 12z"/>
<path d="M4480 4799 c0 -18 43 -84 47 -72 4 10 -34 83 -43 83 -2 0 -4 -5 -4
-11z"/>
<path d="M4431 4760 c-5 -16 -6 -30 -1 -30 4 0 13 14 19 30 5 17 6 30 1 30 -4
0 -13 -13 -19 -30z"/>
<path d="M4436 4703 c-41 -100 -41 -100 -10 -72 61 56 76 49 18 -8 -56 -53
-64 -67 -89 -144 -41 -129 -88 -360 -75 -373 5 -5 10 -21 11 -35 0 -24 1 -24
9 -6 6 13 9 15 9 5 2 -40 33 39 57 146 32 144 77 298 109 374 13 32 26 70 29
84 5 26 -20 96 -34 96 -4 0 -19 -30 -34 -67z"/>
<path d="M4402 4695 c-6 -13 -8 -26 -4 -29 4 -2 12 7 19 20 6 13 8 26 4 29 -5
2 -13 -7 -19 -20z"/>
<path d="M3691 4641 c-7 -12 -7 -22 -2 -26 5 -3 13 4 16 16 9 28 -1 36 -14 10z"/>
<path d="M4290 4547 c0 -2 14 -16 32 -33 l31 -29 -22 33 c-18 26 -41 42 -41
29z"/>
<path d="M5010 4430 c0 -5 5 -10 10 -10 6 0 10 5 10 10 0 6 -4 10 -10 10 -5 0
-10 -4 -10 -10z"/>
<path d="M6071 4430 c0 -8 6 -28 14 -45 17 -39 18 -21 0 25 -7 19 -14 28 -14
20z"/>
<path d="M4781 4404 c-12 -15 -21 -40 -21 -57 0 -24 3 -28 20 -24 14 4 20 0
21 -11 0 -10 7 -2 15 17 17 37 15 92 -2 98 -7 2 -21 -8 -33 -23z"/>
<path d="M5180 4359 c0 -5 5 -7 10 -4 6 3 10 8 10 11 0 2 -4 4 -10 4 -5 0 -10
-5 -10 -11z"/>
<path d="M6111 4294 c0 -11 3 -14 6 -6 3 7 2 16 -1 19 -3 4 -6 -2 -5 -13z"/>
<path d="M4243 4163 c-6 -38 -9 -70 -7 -71 7 -9 23 39 30 86 10 78 -11 64 -23
-15z"/>
<path d="M4516 4193 c-4 -4 3 -15 16 -25 l23 -19 -45 2 c-25 2 -51 7 -57 12
-9 7 -13 5 -13 -7 0 -9 8 -16 20 -16 11 0 20 -4 20 -10 0 -5 19 -13 41 -16 29
-5 43 -13 46 -25 6 -23 16 -24 33 -4 11 14 7 19 -12 16 -5 0 -8 8 -8 19 0 11
-4 20 -10 20 -5 0 -10 7 -10 17 0 15 1 15 18 0 10 -10 22 -17 27 -17 5 0 -1 9
-13 20 -12 11 -27 20 -35 20 -7 0 -18 5 -23 10 -6 6 -14 7 -18 3z"/>
<path d="M5548 4140 c18 -16 37 -30 44 -30 6 0 -1 14 -17 30 -16 17 -35 30
-43 30 -9 0 -3 -11 16 -30z"/>
<path d="M5486 4147 c3 -10 9 -15 12 -12 3 3 0 11 -7 18 -10 9 -11 8 -5 -6z"/>
<path d="M5506 4121 c-4 -6 -4 -21 -1 -32 7 -20 8 -20 23 -5 15 15 15 17 0 32
-11 11 -18 12 -22 5z m24 -21 c0 -5 -5 -10 -11 -10 -5 0 -7 5 -4 10 3 6 8 10
11 10 2 0 4 -4 4 -10z"/>
<path d="M4222 3990 c0 -14 2 -19 5 -12 2 6 2 18 0 25 -3 6 -5 1 -5 -13z"/>
<path d="M4266 3978 c-12 -76 -15 -112 -9 -98 3 8 13 21 21 29 13 13 14 13 8
-6 -4 -12 -2 -24 4 -28 6 -4 10 15 10 54 0 37 4 61 12 63 7 3 6 7 -5 11 -12 4
-17 1 -17 -11 0 -9 -5 -24 -11 -32 -8 -11 -9 -7 -4 18 4 17 4 32 1 32 -3 0 -7
-15 -10 -32z"/>
<path d="M5635 3959 c7 -11 35 -12 35 -1 0 4 -9 8 -20 9 -11 1 -18 -2 -15 -8z"/>
<path d="M4211 3943 c-1 -12 4 -25 9 -28 12 -7 12 2 0 30 -8 19 -9 19 -9 -2z"/>
<path d="M4434 3907 c-9 -5 -24 -7 -35 -4 -10 3 -17 1 -13 -4 3 -5 14 -9 24
-9 11 0 30 -5 44 -11 29 -13 71 -5 79 15 4 11 -6 15 -39 18 -25 2 -52 -1 -60
-5z"/>
<path d="M4555 3890 c3 -5 8 -10 11 -10 2 0 4 5 4 10 0 6 -5 10 -11 10 -5 0
-7 -4 -4 -10z"/>
<path d="M4271 3851 c-1 -16 -5 -21 -16 -17 -17 6 -20 -11 -5 -34 8 -13 10
-12 10 3 0 9 4 17 9 17 5 0 12 -8 14 -17 3 -12 5 -9 5 7 0 14 -3 34 -8 45 -8
19 -9 19 -9 -4z"/>
<path d="M4429 3771 l-24 -20 47 -1 c40 0 69 13 56 25 -16 16 -57 14 -79 -4z
m48 -7 c-3 -3 -12 -4 -19 -1 -8 3 -5 6 6 6 11 1 17 -2 13 -5z"/>
<path d="M4272 3725 c0 -16 2 -22 5 -12 2 9 2 23 0 30 -3 6 -5 -1 -5 -18z"/>
<path d="M4253 3700 c0 -25 2 -35 4 -22 2 12 2 32 0 45 -2 12 -4 2 -4 -23z"/>
<path d="M4581 3646 c-18 -40 -18 -40 -25 -13 -8 32 -26 36 -33 7 -4 -16 -14
-20 -47 -21 -41 0 -96 -16 -66 -19 10 -1 9 -4 -5 -10 -18 -7 -18 -8 7 -15 15
-4 48 -5 72 -4 42 4 44 3 28 -14 -18 -21 -24 -56 -8 -58 20 -2 -48 -17 -89
-19 -35 -2 -37 -3 -15 -10 25 -7 24 -9 -20 -23 -8 -3 18 -6 58 -6 60 -1 72 2
72 15 0 12 6 15 20 11 17 -4 22 0 27 24 l6 30 16 -25 17 -26 27 33 c21 24 27
40 23 63 -4 27 -1 33 17 37 12 2 31 8 41 12 14 6 17 5 11 -4 -6 -10 -3 -11 14
-2 11 7 21 17 21 23 0 7 -5 6 -15 -2 -12 -10 -16 -9 -21 4 -4 11 -10 13 -18 7
-8 -7 -15 -2 -24 17 -9 21 -19 27 -43 28 -27 1 -33 -4 -48 -40z"/>
<path d="M4240 3617 c-31 -70 8 -510 70 -782 35 -152 111 -394 138 -436 28
-44 122 -116 122 -94 0 2 -12 30 -26 62 -75 170 -127 334 -184 580 -56 237
-65 308 -77 555 -6 143 -17 173 -43 115z"/>
<path d="M5510 3540 c8 -5 29 -9 45 -9 26 0 27 2 10 9 -11 5 -31 9 -45 9 -20
1 -22 -1 -10 -9z"/>
<path d="M4976 3505 c-3 -9 -6 -24 -5 -33 0 -9 5 -4 10 12 9 32 6 48 -5 21z"/>
<path d="M5528 3513 c6 -2 10 -9 7 -14 -5 -7 19 -7 68 0 4 0 7 6 7 11 0 6 -21
10 -47 9 -27 0 -42 -3 -35 -6z"/>
<path d="M4860 3495 c0 -15 -7 -21 -27 -23 -15 -1 -31 -6 -35 -10 -5 -5 5 -7
22 -4 18 2 30 0 30 -7 0 -6 -6 -8 -13 -5 -7 2 -24 0 -38 -5 -22 -9 -20 -10 16
-10 36 -1 42 2 52 28 6 17 7 35 2 42 -7 11 -9 9 -9 -6z"/>
<path d="M4930 3496 c0 -8 -6 -17 -12 -19 -7 -3 -3 -6 9 -6 16 -1 20 3 16 19
-6 23 -13 26 -13 6z"/>
<path d="M5631 3501 c-7 -5 -10 -14 -6 -21 4 -6 -1 -21 -12 -32 -18 -21 -18
-21 5 -9 12 6 23 15 23 19 3 13 6 52 5 52 0 0 -7 -4 -15 -9z"/>
<path d="M4892 3443 c4 -18 -26 -56 -36 -45 -3 3 -6 -9 -6 -26 0 -34 -16 -50
-33 -33 -6 6 -30 11 -54 11 l-43 0 0 -40 c0 -42 -3 -40 65 -44 11 -1 26 3 33
8 8 6 19 3 30 -6 20 -18 82 -22 82 -5 0 7 4 6 10 -3 10 -16 11 -13 14 32 0 14
4 30 9 34 4 4 7 27 7 51 0 37 -3 44 -17 41 -15 -3 -18 -15 -18 -68 l0 -65 -87
0 c-79 -1 -88 1 -88 17 0 22 25 34 43 21 6 -6 33 -11 59 -12 l46 -2 4 76 c2
58 0 75 -11 75 -8 0 -12 -7 -9 -17z"/>
<path d="M5550 3452 c0 -5 9 -12 21 -15 13 -3 19 -1 16 6 -5 15 -37 22 -37 9z"/>
<path d="M4987 3444 c-4 -4 -7 -14 -7 -23 0 -11 3 -12 11 -4 6 6 10 16 7 23
-2 6 -7 8 -11 4z"/>
<path d="M5236 3428 c-18 -10 -18 -11 5 -24 33 -18 36 -17 34 8 -2 26 -13 31
-39 16z"/>
<path d="M4602 3400 c0 -14 2 -19 5 -12 2 6 2 18 0 25 -3 6 -5 1 -5 -13z"/>
<path d="M5420 3399 c0 -5 5 -7 10 -4 6 3 10 8 10 11 0 2 -4 4 -10 4 -5 0 -10
-5 -10 -11z"/>
<path d="M5452 3398 c5 -15 67 -18 71 -3 1 6 -15 11 -37 13 -28 3 -37 0 -34
-10z"/>
<path d="M4700 3392 c0 -5 28 -10 63 -11 44 -1 58 1 47 9 -18 12 -110 13 -110
2z"/>
<path d="M5310 3348 c0 -10 9 -9 35 2 17 8 16 8 -7 7 -16 -1 -28 -5 -28 -9z"/>
<path d="M5227 3343 c-11 -10 -8 -67 4 -102 9 -25 14 -29 25 -20 14 12 19 84
8 113 -6 16 -26 21 -37 9z"/>
<path d="M5187 3311 c-4 -18 -2 -52 3 -75 19 -75 63 -196 71 -196 12 0 0 56
-29 130 -14 36 -28 90 -31 120 -6 53 -7 54 -14 21z"/>
<path d="M4465 3320 c-13 -5 -14 -9 -5 -9 8 0 24 4 35 9 13 5 14 9 5 9 -8 0
-24 -4 -35 -9z"/>
<path d="M5288 3283 l4 -35 62 4 c51 3 61 7 63 23 3 19 3 19 -6 0 -8 -17 -10
-18 -10 -2 -1 9 -8 17 -17 17 -8 0 -12 5 -9 10 4 6 -6 11 -22 11 -15 1 -37 3
-48 4 -18 2 -20 -3 -17 -32z"/>
<path d="M4212 3291 c-16 -10 -12 -63 6 -69 8 -2 12 9 12 37 0 23 -1 41 -2 41
-2 0 -9 -4 -16 -9z"/>
<path d="M4942 3220 c0 -14 2 -19 5 -12 2 6 2 18 0 25 -3 6 -5 1 -5 -13z"/>
<path d="M5286 3202 c15 -61 37 -79 48 -39 l6 22 19 -23 c11 -12 22 -18 25
-14 12 20 25 62 18 60 -4 -1 -14 1 -22 5 -8 3 -34 8 -57 10 -42 5 -43 5 -37
-21z"/>
<path d="M5154 3192 c-15 -23 3 -61 27 -59 23 2 23 3 1 44 -15 29 -19 31 -28
15z"/>
<path d="M5261 3170 c0 -8 9 -36 22 -62 l22 -48 33 26 c42 34 41 48 -4 29
l-35 -14 -19 42 c-10 23 -19 35 -19 27z"/>
<path d="M5173 3035 c0 -27 2 -38 4 -22 2 15 2 37 0 50 -2 12 -4 0 -4 -28z"/>
<path d="M5136 3023 c-9 -31 -4 -303 6 -303 5 0 8 66 7 160 -1 88 -3 160 -5
160 -1 0 -5 -8 -8 -17z"/>
<path d="M6192 2950 c0 -14 2 -19 5 -12 2 6 2 18 0 25 -3 6 -5 1 -5 -13z"/>
<path d="M5005 2906 c1 -24 10 -54 19 -67 19 -27 22 -18 4 14 -6 12 -11 36
-10 54 2 17 -2 34 -7 37 -5 3 -8 -13 -6 -38z"/>
<path d="M4965 2900 c-3 -5 -1 -10 4 -10 6 0 11 5 11 10 0 6 -2 10 -4 10 -3 0
-8 -4 -11 -10z"/>
<path d="M6181 2894 c0 -11 3 -14 6 -6 3 7 2 16 -1 19 -3 4 -6 -2 -5 -13z"/>
<path d="M6172 2830 c0 -14 2 -19 5 -12 2 6 2 18 0 25 -3 6 -5 1 -5 -13z"/>
<path d="M6161 2784 c0 -11 3 -14 6 -6 3 7 2 16 -1 19 -3 4 -6 -2 -5 -13z"/>
<path d="M6151 2734 c0 -11 3 -14 6 -6 3 7 2 16 -1 19 -3 4 -6 -2 -5 -13z"/>
<path d="M4359 2558 c-6 -29 -6 -57 1 -53 5 3 12 -5 16 -19 6 -25 34 -57 34
-39 0 31 -46 132 -51 111z"/>
<path d="M4410 2413 c0 -26 33 -83 44 -74 8 6 29 -25 66 -96 l55 -105 17 38
c21 47 22 62 5 77 -41 39 -117 97 -128 99 -8 2 -24 19 -36 38 -12 19 -23 30
-23 23z"/>
<path d="M3750 2306 c0 -7 7 -19 15 -26 8 -7 15 -18 15 -25 0 -7 7 -18 15 -25
21 -17 19 -10 -11 44 -27 48 -34 55 -34 32z"/>
<path d="M4140 2281 c0 -5 5 -13 10 -16 6 -3 10 -2 10 4 0 5 -4 13 -10 16 -5
3 -10 2 -10 -4z"/>
<path d="M4700 2249 c0 -5 5 -7 10 -4 6 3 10 8 10 11 0 2 -4 4 -10 4 -5 0 -10
-5 -10 -11z"/>
<path d="M4701 2180 c0 -36 2 -41 10 -27 7 12 7 27 0 45 -9 25 -9 24 -10 -18z"/>
<path d="M4902 2110 c0 -14 2 -19 5 -12 2 6 2 18 0 25 -3 6 -5 1 -5 -13z"/>
<path d="M5020 2089 c0 -5 5 -7 10 -4 6 3 10 8 10 11 0 2 -4 4 -10 4 -5 0 -10
-5 -10 -11z"/>
<path d="M4687 2076 c-3 -8 1 -17 9 -20 8 -3 14 1 14 9 0 20 -17 28 -23 11z"/>
<path d="M3334 2069 c-21 -7 -54 -45 -54 -62 0 -5 7 -1 16 8 42 41 94 -19 63
-73 -18 -34 -44 -39 -71 -15 -20 18 -21 18 -13 -7 11 -38 35 -60 65 -60 31 0
68 24 52 34 -8 5 -8 15 0 37 6 17 7 49 4 71 -6 36 -5 40 9 28 8 -7 15 -9 15
-4 -1 30 -52 56 -86 43z"/>
<path d="M3960 2039 c0 -10 80 -90 80 -80 0 3 4 2 8 -4 4 -5 25 -19 47 -30 27
-14 39 -26 37 -38 -2 -10 6 -21 20 -26 13 -5 30 -16 37 -25 7 -9 20 -16 27
-16 8 0 23 -4 34 -10 11 -5 29 -14 40 -20 11 -5 30 -10 43 -10 13 0 28 -5 35
-12 12 -12 15 -8 25 40 5 21 2 22 -46 22 -29 0 -59 5 -67 11 -11 7 -2 9 33 6
46 -4 69 5 47 18 -6 4 -8 11 -5 16 4 5 13 3 21 -6 9 -8 12 -19 9 -25 -3 -5 -1
-10 4 -10 6 0 11 16 11 35 0 25 6 37 23 46 20 11 21 11 9 -4 -11 -13 -11 -15
2 -13 24 3 28 12 12 25 -11 9 -29 10 -76 1 -109 -20 -256 15 -360 85 -28 19
-50 29 -50 24z m400 -133 c0 -3 -4 -8 -10 -11 -5 -3 -10 -1 -10 4 0 6 5 11 10
11 6 0 10 -2 10 -4z m-180 -26 c8 -5 11 -10 5 -10 -5 0 -17 5 -25 10 -8 5 -10
10 -5 10 6 0 17 -5 25 -10z m80 -30 c0 -5 -2 -10 -4 -10 -3 0 -8 5 -11 10 -3
6 -1 10 4 10 6 0 11 -4 11 -10z"/>
<path d="M4666 2031 c-8 -12 3 -41 15 -41 5 0 9 4 9 9 0 5 3 16 6 25 7 17 -20
23 -30 7z"/>
<path d="M5044 2026 c-10 -8 -16 -17 -13 -20 3 -3 14 3 24 14 21 23 17 26 -11
6z"/>
<path d="M3423 1975 c0 -22 2 -30 4 -17 2 12 2 30 0 40 -3 9 -5 -1 -4 -23z"/>
<path d="M5010 1965 c-7 -8 -9 -15 -6 -15 4 0 2 -6 -4 -12 -53 -64 -56 -68
-41 -68 11 0 75 99 69 106 -3 2 -11 -2 -18 -11z"/>
<path d="M4623 1955 c-7 -8 -13 -17 -13 -20 0 -10 29 -5 36 6 10 17 -10 29
-23 14z"/>
<path d="M4077 1914 c3 -7 9 -14 14 -14 14 0 10 17 -5 23 -10 4 -13 1 -9 -9z"/>
<path d="M4580 1905 c-7 -9 -10 -18 -7 -21 7 -8 47 14 47 26 0 15 -26 12 -40
-5z"/>
<path d="M4422 1866 c-1 -20 2 -23 19 -19 23 6 22 36 -1 41 -10 2 -16 -6 -18
-22z"/>
<path d="M4496 1814 c-69 -59 -81 -81 -24 -46 40 25 116 102 101 102 -6 0 -41
-25 -77 -56z"/>
<path d="M4902 1810 c-22 -30 -21 -41 1 -17 27 28 39 47 30 47 -5 0 -19 -13
-31 -30z"/>
<path d="M4850 1755 c-7 -9 -11 -18 -8 -20 3 -3 11 1 18 10 7 9 11 18 8 20 -3
3 -11 -1 -18 -10z"/>
<path d="M4330 1699 c-81 -42 -77 -54 5 -15 51 25 98 56 80 55 -5 -1 -44 -19
-85 -40z"/>
<path d="M4784 1688 l-29 -33 33 29 c30 28 37 36 29 36 -2 0 -16 -15 -33 -32z"/>
<path d="M3722 1685 c7 -15 17 -24 25 -21 8 3 12 2 9 -3 -3 -5 6 -16 20 -26
l25 -16 -17 28 c-27 44 -46 63 -60 63 -11 0 -11 -5 -2 -25z"/>
<path d="M4202 1653 c-18 -2 -30 -8 -27 -13 3 -5 19 -5 36 0 30 9 54 22 33 18
-5 0 -24 -3 -42 -5z"/>
<path d="M4025 1601 c17 -12 36 -19 43 -16 18 7 43 -5 35 -18 -3 -6 -1 -7 5
-3 6 3 44 -3 84 -14 76 -21 194 -28 183 -10 -8 13 8 13 21 0 7 -7 11 -6 11 5
0 8 -6 15 -14 15 -7 0 -13 3 -13 8 0 4 -51 7 -112 7 -85 1 -124 6 -158 19 -25
10 -61 20 -80 23 l-35 4 30 -20z"/>
<path d="M11435 5620 c-4 -6 5 -10 19 -10 14 0 26 5 26 10 0 6 -9 10 -19 10
-11 0 -23 -4 -26 -10z"/>
<path d="M11740 5591 c-14 -4 -26 -14 -28 -23 -2 -9 11 -70 28 -135 62 -231
44 -220 311 -188 333 40 337 42 358 155 19 110 -9 134 -178 156 -91 13 -447
45 -461 43 -3 -1 -16 -4 -30 -8z m211 -108 c13 -17 13 -17 -6 -3 -11 8 -22 16
-24 17 -2 2 0 3 6 3 6 0 17 -8 24 -17z m117 -16 c7 -8 7 -18 2 -27 -6 -8 -10
-26 -10 -40 0 -14 -8 -34 -16 -45 -14 -19 -15 -17 -8 20 5 22 7 55 6 73 -2 33
8 41 26 19z m-214 -23 c3 -8 2 -12 -4 -9 -6 3 -10 1 -10 -6 0 -7 -2 -10 -5 -7
-5 5 4 38 10 38 2 0 6 -7 9 -16z m117 -57 c-6 -14 -20 -31 -33 -38 l-23 -11
22 20 c12 12 24 31 28 42 4 12 9 20 11 17 3 -2 0 -16 -5 -30z"/>
<path d="M11333 5235 c-11 -8 -23 -24 -26 -35 -7 -25 10 -27 18 -1 9 31 77 36
88 7 9 -22 -5 -66 -20 -66 -8 0 -11 -4 -8 -10 9 -15 23 -12 45 10 59 59 -27
144 -97 95z"/>
<path d="M11352 5174 c9 -9 21 -15 27 -13 6 2 -2 10 -17 17 -25 11 -25 11 -10
-4z"/>
<path d="M11310 5161 c0 -10 29 -36 34 -30 1 2 -6 12 -16 22 -10 9 -18 13 -18
8z"/>
<path d="M12358 5143 c7 -3 16 -2 19 1 4 3 -2 6 -13 5 -11 0 -14 -3 -6 -6z"/>
<path d="M11798 5133 c7 -3 16 -2 19 1 4 3 -2 6 -13 5 -11 0 -14 -3 -6 -6z"/>
<path d="M10488 4213 c6 -2 18 -2 25 0 6 3 1 5 -13 5 -14 0 -19 -2 -12 -5z"/>
<path d="M12003 4801 c-33 -15 -41 -24 -37 -38 5 -15 4 -15 -4 -3 -9 12 -14
11 -31 -9 -27 -31 -27 -40 -1 -16 11 10 23 15 26 12 4 -3 15 -2 25 4 13 7 19
6 19 -1 0 -7 9 -9 23 -5 15 5 10 -1 -13 -16 -41 -28 -80 -99 -80 -146 0 -52
26 -105 73 -146 l42 -37 -35 11 c-19 7 -41 17 -49 23 -11 9 -13 6 -6 -14 l7
-25 -27 25 c-15 14 -36 44 -47 68 -23 52 -34 56 -13 5 40 -96 126 -154 230
-155 142 -1 258 125 242 262 -10 83 -52 145 -132 195 -45 28 -158 31 -212 6z
m167 -71 c11 -8 7 -9 -15 -4 -37 8 -45 14 -19 14 10 0 26 -5 34 -10z m63 -46
c14 -18 16 -28 8 -38 -6 -7 -8 -16 -4 -20 4 -4 -1 -4 -10 0 -11 4 -16 13 -12
22 5 13 3 13 -11 2 -13 -12 -17 -11 -24 0 -5 9 -4 20 2 27 9 11 15 9 35 -8 32
-31 29 -11 -4 24 -16 15 -21 26 -13 22 8 -3 23 -17 33 -31z m-108 -10 c-12
-19 -14 -29 -6 -37 8 -8 11 -6 11 6 0 9 4 17 9 17 15 0 22 -32 10 -46 -13 -16
-49 -19 -49 -3 0 5 -4 8 -9 4 -5 -3 -12 -1 -16 4 -3 6 4 8 16 6 16 -3 19 0 15
12 -6 15 17 63 30 63 4 0 -1 -12 -11 -26z m145 -91 c0 -46 -32 -113 -62 -132
-21 -13 -22 -13 -9 2 11 14 11 17 0 17 -8 0 -3 6 11 13 28 14 53 77 47 119 -2
15 0 25 5 22 4 -3 8 -21 8 -41z m-35 17 c-3 -5 -12 -10 -18 -10 -7 0 -6 4 3
10 19 12 23 12 15 0z m-218 -22 c-3 -8 -6 -5 -6 6 -1 11 2 17 5 13 3 -3 4 -12
1 -19z m213 -55 c-11 -17 -11 -17 -6 0 3 10 7 28 7 40 2 22 2 22 6 0 2 -12 -1
-30 -7 -40z m-50 43 c0 -3 -4 -8 -10 -11 -5 -3 -10 -1 -10 4 0 6 5 11 10 11 6
0 10 -2 10 -4z m-45 -67 c-10 -15 -23 -10 -31 13 -6 20 -8 20 -19 5 -6 -9 -15
-14 -18 -10 -10 10 -8 25 2 18 5 -3 13 4 16 15 7 21 7 20 31 -5 13 -15 22 -31
19 -36z m-94 10 c19 -17 25 -26 14 -21 -20 10 -63 52 -53 52 3 0 21 -14 39
-31z m52 -30 c-6 -6 -9 -17 -7 -24 3 -7 1 -16 -4 -19 -5 -3 -8 2 -7 12 2 25
17 54 23 47 3 -3 1 -10 -5 -16z m85 -23 c-2 -17 -7 -22 -20 -18 -23 6 -23 29
0 35 9 3 18 5 19 6 2 0 2 -10 1 -23z m-58 -16 c0 -5 -4 -10 -10 -10 -5 0 -10
5 -10 10 0 6 5 10 10 10 6 0 10 -4 10 -10z"/>
<path d="M11886 4688 c-9 -12 -16 -27 -16 -33 1 -5 8 3 16 18 8 16 20 25 26
21 7 -4 8 -3 4 4 -10 16 -13 15 -30 -10z"/>
<path d="M11863 4590 c0 -30 2 -43 4 -27 2 15 2 39 0 55 -2 15 -4 2 -4 -28z"/>
<path d="M11897 4536 c-4 -10 -1 -13 8 -9 8 3 12 9 9 14 -7 12 -11 11 -17 -5z"/>
<path d="M11741 4214 c0 -11 3 -14 6 -6 3 7 2 16 -1 19 -3 4 -6 -2 -5 -13z"/>
<path d="M11741 4174 c0 -11 3 -14 6 -6 3 7 2 16 -1 19 -3 4 -6 -2 -5 -13z"/>
<path d="M11676 4173 c-6 -14 -5 -15 5 -6 7 7 10 15 7 18 -3 3 -9 -2 -12 -12z"/>
<path d="M7930 3110 c0 -5 5 -10 11 -10 5 0 7 5 4 10 -3 6 -8 10 -11 10 -2 0
-4 -4 -4 -10z"/>
<path d="M11736 3303 c-11 -11 -6 -23 8 -23 7 0 18 6 24 13 8 10 6 13 -8 14
-10 1 -21 -1 -24 -4z"/>
<path d="M11861 3084 c13 -16 29 -19 29 -5 0 5 -9 11 -21 14 -16 4 -18 3 -8
-9z"/>
<path d="M8792 3180 c0 -14 2 -19 5 -12 2 6 2 18 0 25 -3 6 -5 1 -5 -13z"/>
<path d="M11790 2661 c-13 -4 -44 -31 -68 -61 -24 -30 -82 -102 -130 -160 -47
-58 -98 -133 -115 -168 -29 -62 -77 -221 -77 -255 0 -16 2 -17 14 -4 63 62
127 167 140 227 3 14 25 52 49 85 37 51 44 67 44 107 0 50 23 98 48 98 8 0 16
-1 18 -2 1 -1 12 4 24 10 14 8 23 8 25 1 2 -5 29 22 61 61 l58 70 -33 -1 c-18
-1 -44 -4 -58 -8z"/>
<path d="M11245 2383 c-24 -35 -36 -69 -17 -47 16 17 54 84 48 84 -3 0 -17
-17 -31 -37z"/>
<path d="M11903 2113 c-16 -6 -203 -237 -203 -250 0 -14 74 -81 105 -95 18 -8
28 -7 47 7 37 29 158 197 158 221 0 12 -12 33 -27 48 -15 15 -31 36 -37 48
-12 23 -24 29 -43 21z"/>
<path d="M11366 1278 c-20 -28 -20 -36 -1 -55 14 -14 15 -13 10 8 -6 27 1 41
30 57 20 11 20 11 -2 12 -12 0 -29 -10 -37 -22z"/>
<path d="M11411 1247 c-13 -21 -12 -21 5 -5 10 10 16 20 13 22 -3 3 -11 -5
-18 -17z"/>
<path d="M8353 2673 c-9 -3 1 -23 30 -59 33 -44 43 -51 45 -35 5 31 -37 103
-58 100 -3 0 -11 -3 -17 -6z"/>
<path d="M9115 2062 c2 -3 0 -13 -5 -22 -11 -21 14 -128 34 -148 19 -20 105
-23 138 -6 82 42 53 174 -38 174 -35 0 -53 -14 -30 -23 12 -5 11 -11 -2 -40
-13 -27 -19 -31 -24 -18 -5 12 -7 11 -7 -6 -1 -27 -21 -31 -21 -5 0 9 -7 26
-15 36 -15 20 -15 20 -16 0 0 -10 -3 -14 -5 -8 -8 19 15 66 28 58 7 -4 10 -3
5 1 -4 5 -16 9 -27 10 -11 1 -18 0 -15 -3z"/>
<path d="M9147 2029 c7 -7 15 -10 18 -7 3 3 -2 9 -12 12 -14 6 -15 5 -6 -5z"/>
<path d="M9734 1285 c-19 -46 -18 -129 1 -149 32 -31 90 19 77 66 -3 12 -18
26 -35 32 -26 10 -28 14 -24 49 6 46 0 47 -19 2z"/>
<path d="M9650 1144 c0 -10 5 -26 10 -34 8 -11 9 -7 4 15 -8 37 -14 45 -14 19z"/>
<path d="M9440 730 c-8 -5 -10 -10 -5 -10 6 0 17 5 25 10 8 5 11 10 5 10 -5 0
-17 -5 -25 -10z"/>
<path d="M9388 713 c6 -2 18 -2 25 0 6 3 1 5 -13 5 -14 0 -19 -2 -12 -5z"/>
<path d="M9767 203 c-4 -3 -7 -11 -7 -17 0 -6 5 -5 12 2 6 6 9 14 7 17 -3 3
-9 2 -12 -2z"/>
</g>
</svg>
