<?xml version="1.0" standalone="no"?>
<!DOCTYPE svg PUBLIC "-//W3C//DTD SVG 20010904//EN"
 "http://www.w3.org/TR/2001/REC-SVG-20010904/DTD/svg10.dtd">
<svg version="1.0" xmlns="http://www.w3.org/2000/svg"
 width="1806.000000pt" height="518.000000pt" viewBox="0 0 1806.000000 518.000000"
 preserveAspectRatio="xMidYMid meet">

<g transform="translate(0.000000,518.000000) scale(0.100000,-0.100000)"
fill="#000000" stroke="none">
<path d="M0 2590 l0 -2590 9030 0 9030 0 0 2590 0 2590 -9030 0 -9030 0 0
-2590z m6274 1874 c146 -46 203 -81 319 -199 71 -72 86 -94 144 -215 36 -74
71 -142 78 -150 8 -8 45 -76 83 -150 38 -74 79 -153 91 -175 33 -62 140 -400
151 -474 14 -96 11 -236 -6 -316 -8 -38 -15 -84 -14 -101 0 -18 -11 -63 -25
-100 -14 -38 -37 -103 -52 -144 -22 -63 -50 -117 -73 -140 -11 -11 -50 -101
-50 -115 0 -22 -45 -113 -89 -180 -22 -33 -40 -66 -40 -74 -1 -7 -23 -38 -49
-70 -116 -136 -126 -147 -204 -218 -26 -24 -49 -51 -53 -62 -3 -10 -19 -24
-35 -31 -16 -6 -31 -18 -34 -26 -3 -8 -14 -14 -25 -14 -11 0 -26 -8 -33 -17
-16 -22 -104 -83 -119 -83 -13 0 -67 -29 -91 -49 -11 -9 -27 -11 -45 -6 -26 6
-21 10 67 53 188 93 361 228 462 362 19 25 46 58 61 74 15 16 27 35 27 42 0 8
3 14 8 14 15 0 125 210 156 297 58 167 78 287 79 498 2 168 -7 263 -33 345 -4
14 -16 52 -25 85 -10 33 -21 64 -26 70 -5 5 -9 16 -9 23 0 42 -100 219 -198
349 -73 97 -134 144 -176 136 -17 -4 -35 -12 -41 -18 -5 -7 -30 -23 -55 -37
-158 -89 -444 4 -567 183 -45 67 -46 70 -51 163 -4 83 -7 97 -26 109 -51 33
-197 48 -371 36 -162 -11 -288 -44 -473 -127 -152 -68 -264 -145 -391 -270
-134 -134 -205 -229 -280 -379 -91 -184 -86 -166 -127 -393 -17 -91 -19 -356
-4 -442 34 -199 60 -284 130 -435 66 -141 152 -261 267 -375 154 -152 241
-217 398 -296 311 -156 664 -189 1027 -97 59 15 112 25 118 23 13 -4 -86 -78
-106 -78 -8 0 -25 -6 -37 -14 -12 -8 -47 -22 -77 -31 -30 -9 -64 -21 -75 -26
-109 -48 -220 -59 -315 -33 -36 10 -101 19 -145 20 -100 3 -145 12 -245 50
-25 9 -61 20 -80 24 -85 19 -169 44 -218 66 -29 13 -63 24 -77 24 -35 0 -71
19 -85 45 -7 13 -32 38 -56 55 -24 17 -44 36 -44 41 0 6 -39 50 -87 98 -49 49
-99 106 -112 127 -40 64 -81 147 -81 163 0 21 -53 155 -68 174 -7 8 -24 59
-38 113 -14 55 -39 139 -55 188 -45 133 -64 346 -39 436 6 25 23 72 37 105 14
33 32 89 39 125 8 35 23 84 34 107 11 24 20 54 20 68 0 13 13 54 30 89 16 36
32 76 36 90 3 14 12 30 20 37 8 6 14 16 14 21 0 5 11 24 24 41 13 18 26 44 30
60 4 15 23 45 42 67 20 22 33 40 30 40 -16 0 46 94 73 111 16 10 48 43 72 74
23 31 55 63 70 71 16 8 57 41 93 74 35 33 72 60 81 60 17 0 104 85 105 102 0
4 17 16 38 27 20 10 71 49 112 86 96 87 108 94 166 105 27 5 101 23 164 41
101 28 130 32 246 33 114 1 135 -1 152 -17 19 -17 22 -17 52 -2 18 9 62 23
100 31 37 7 87 22 111 33 66 29 171 27 273 -5z m-4401 -684 c236 -19 366 -69
482 -185 111 -110 170 -248 182 -425 18 -275 -118 -541 -330 -645 -160 -78
-293 -95 -759 -95 l-358 0 0 -465 0 -465 -150 0 -150 0 0 1145 0 1145 479 0
c263 0 535 -5 604 -10z m7697 -402 l0 -412 48 45 c134 128 263 179 458 179
230 0 423 -98 499 -254 60 -124 59 -115 63 -803 l3 -633 -141 0 -140 0 0 566
c0 628 -3 661 -63 752 -94 139 -315 175 -501 80 -57 -29 -134 -106 -162 -160
-57 -112 -57 -119 -62 -700 l-3 -538 -140 0 -139 0 0 1145 0 1145 140 0 140 0
0 -412z m6077 340 c98 -234 903 -2207 903 -2212 0 -4 -77 -5 -171 -4 l-172 3
-131 342 -131 343 -480 0 -480 0 -125 -345 -124 -345 -158 0 c-87 0 -158 3
-158 8 0 4 196 519 436 1145 l437 1137 162 0 162 0 30 -72z m1503 -1073 l0
-1145 -150 0 -150 0 0 1145 0 1145 150 0 150 0 0 -1145z m-3970 800 l0 -285
140 0 140 0 0 -110 0 -110 -140 0 -141 0 3 -552 c3 -512 4 -555 21 -586 27
-49 72 -64 176 -61 l86 3 19 -117 c10 -65 16 -120 13 -124 -13 -13 -97 -22
-203 -23 -156 0 -228 22 -300 94 -88 89 -94 135 -94 839 l0 527 -100 0 -100 0
0 110 0 110 100 0 100 0 0 204 0 203 133 81 c72 44 135 81 140 81 4 1 7 -127
7 -284z m-9510 -283 c30 -12 69 -31 87 -41 l31 -20 -46 -126 c-35 -94 -51
-125 -62 -121 -8 2 -41 14 -72 25 -64 23 -163 27 -215 8 -98 -36 -163 -122
-199 -262 -15 -62 -18 -132 -21 -597 l-4 -528 -140 0 -139 0 0 830 0 830 125
0 124 0 3 -122 3 -122 37 60 c59 95 116 154 183 186 56 27 66 29 155 25 66 -3
112 -11 150 -25z m4745 13 c86 -22 211 -86 273 -140 179 -158 273 -431 259
-754 -17 -401 -197 -678 -512 -787 -70 -24 -96 -28 -200 -28 -100 -1 -131 3
-187 22 -70 24 -158 80 -220 140 l-38 36 0 -402 0 -402 -140 0 -140 0 0 1150
0 1150 130 0 130 0 0 -105 0 -105 64 67 c75 79 152 129 239 154 80 23 259 25
342 4z m3505 1 c275 -59 475 -256 550 -541 21 -81 47 -343 36 -370 -5 -13 -82
-15 -621 -15 l-615 0 0 -23 c0 -102 54 -260 119 -348 133 -181 382 -240 588
-139 78 39 144 111 192 210 20 41 37 76 37 78 1 2 66 -4 143 -14 92 -11 141
-21 141 -29 0 -23 -41 -129 -67 -174 -94 -163 -236 -272 -422 -323 -111 -31
-362 -31 -474 0 -300 82 -491 314 -537 650 -18 130 -8 361 20 472 26 103 95
248 146 310 104 124 263 223 409 254 90 19 271 20 355 2z"/>
<path d="M1097 3513 c-4 -3 -7 -188 -7 -410 l0 -404 393 3 c358 4 398 6 458
24 37 12 87 32 111 47 197 115 235 439 74 624 -57 65 -140 101 -261 113 -113
11 -758 14 -768 3z"/>
<path d="M15426 3448 c-28 -127 -66 -241 -213 -636 -74 -200 -133 -365 -131
-368 3 -2 176 -3 385 -2 l380 3 -161 430 c-89 237 -177 481 -196 542 -19 62
-37 113 -40 113 -3 0 -13 -37 -24 -82z"/>
<path d="M8113 2956 c-147 -48 -268 -193 -320 -386 -26 -93 -26 -416 0 -510
69 -254 260 -399 477 -362 179 31 308 161 366 372 27 95 27 436 1 530 -44 157
-136 279 -252 336 -48 23 -74 29 -144 31 -54 2 -102 -2 -128 -11z"/>
<path d="M11596 2936 c-167 -61 -283 -213 -310 -408 l-5 -38 465 0 465 0 -7
48 c-27 187 -114 316 -262 385 -58 27 -78 31 -171 34 -93 3 -114 1 -175 -21z"/>
</g>
</svg>
